<svg width="235" height="53" viewBox="0 0 235 53" fill="none" xmlns="http://www.w3.org/2000/svg">
<g filter="url(#filter0_b_13489_17964)">
<rect width="235" height="53" rx="26.5" fill="white" fill-opacity="0.25"/>
<rect x="0.59" y="0.59" width="233.82" height="51.82" rx="25.91" stroke="white" stroke-width="1.18"/>
<path d="M60.823 23.536C60.759 23.648 60.6897 23.7307 60.615 23.784C60.5457 23.832 60.4577 23.856 60.351 23.856C60.239 23.856 60.1163 23.816 59.983 23.736C59.855 23.6507 59.7003 23.5573 59.519 23.456C59.3377 23.3547 59.1243 23.264 58.879 23.184C58.639 23.0987 58.3537 23.056 58.023 23.056C57.7243 23.056 57.463 23.0933 57.239 23.168C57.015 23.2373 56.8257 23.336 56.671 23.464C56.5217 23.592 56.4097 23.7467 56.335 23.928C56.2603 24.104 56.223 24.2987 56.223 24.512C56.223 24.784 56.2977 25.0107 56.447 25.192C56.6017 25.3733 56.8043 25.528 57.055 25.656C57.3057 25.784 57.591 25.8987 57.911 26C58.231 26.1013 58.559 26.2107 58.895 26.328C59.231 26.44 59.559 26.5733 59.879 26.728C60.199 26.8773 60.4843 27.0693 60.735 27.304C60.9857 27.5333 61.1857 27.816 61.335 28.152C61.4897 28.488 61.567 28.896 61.567 29.376C61.567 29.8987 61.4763 30.3893 61.295 30.848C61.119 31.3013 60.8577 31.6987 60.511 32.04C60.1697 32.376 59.751 32.6427 59.255 32.84C58.759 33.032 58.191 33.128 57.551 33.128C57.183 33.128 56.8203 33.0907 56.463 33.016C56.1057 32.9467 55.7617 32.8453 55.431 32.712C55.1057 32.5787 54.799 32.4187 54.511 32.232C54.223 32.0453 53.967 31.8373 53.743 31.608L54.375 30.576C54.4283 30.5013 54.4977 30.44 54.583 30.392C54.6683 30.3387 54.759 30.312 54.855 30.312C54.9883 30.312 55.1323 30.368 55.287 30.48C55.4417 30.5867 55.6257 30.7067 55.839 30.84C56.0523 30.9733 56.3003 31.096 56.583 31.208C56.871 31.3147 57.215 31.368 57.615 31.368C58.2283 31.368 58.703 31.224 59.039 30.936C59.375 30.6427 59.543 30.224 59.543 29.68C59.543 29.376 59.4657 29.128 59.311 28.936C59.1617 28.744 58.9617 28.584 58.711 28.456C58.4603 28.3227 58.175 28.2107 57.855 28.12C57.535 28.0293 57.2097 27.9307 56.879 27.824C56.5483 27.7173 56.223 27.5893 55.903 27.44C55.583 27.2907 55.2977 27.096 55.047 26.856C54.7963 26.616 54.5937 26.3173 54.439 25.96C54.2897 25.5973 54.215 25.152 54.215 24.624C54.215 24.2027 54.2977 23.792 54.463 23.392C54.6337 22.992 54.879 22.6373 55.199 22.328C55.519 22.0187 55.9137 21.7707 56.383 21.584C56.8523 21.3973 57.391 21.304 57.999 21.304C58.6817 21.304 59.311 21.4107 59.887 21.624C60.463 21.8373 60.9537 22.136 61.359 22.52L60.823 23.536ZM73.1963 21.432V33H71.0363V27.944H65.6043V33H63.4443V21.432H65.6043V26.408H71.0363V21.432H73.1963ZM86.8044 27.216C86.8044 28.064 86.663 28.8507 86.3804 29.576C86.103 30.296 85.7084 30.92 85.1964 31.448C84.6844 31.976 84.0684 32.3893 83.3484 32.688C82.6284 32.9813 81.8284 33.128 80.9484 33.128C80.0737 33.128 79.2764 32.9813 78.5564 32.688C77.8364 32.3893 77.2177 31.976 76.7004 31.448C76.1884 30.92 75.791 30.296 75.5084 29.576C75.2257 28.8507 75.0844 28.064 75.0844 27.216C75.0844 26.368 75.2257 25.584 75.5084 24.864C75.791 24.1387 76.1884 23.512 76.7004 22.984C77.2177 22.456 77.8364 22.0453 78.5564 21.752C79.2764 21.4533 80.0737 21.304 80.9484 21.304C81.535 21.304 82.087 21.3733 82.6044 21.512C83.1217 21.6453 83.5964 21.8373 84.0284 22.088C84.4604 22.3333 84.847 22.6347 85.1884 22.992C85.535 23.344 85.8284 23.7387 86.0684 24.176C86.3084 24.6133 86.4897 25.088 86.6124 25.6C86.7404 26.112 86.8044 26.6507 86.8044 27.216ZM84.6044 27.216C84.6044 26.5813 84.519 26.0133 84.3484 25.512C84.1777 25.0053 83.935 24.576 83.6204 24.224C83.3057 23.872 82.9217 23.6027 82.4684 23.416C82.0204 23.2293 81.5137 23.136 80.9484 23.136C80.383 23.136 79.8737 23.2293 79.4204 23.416C78.9724 23.6027 78.5884 23.872 78.2684 24.224C77.9537 24.576 77.711 25.0053 77.5404 25.512C77.3697 26.0133 77.2844 26.5813 77.2844 27.216C77.2844 27.8507 77.3697 28.4213 77.5404 28.928C77.711 29.4293 77.9537 29.856 78.2684 30.208C78.5884 30.5547 78.9724 30.8213 79.4204 31.008C79.8737 31.1947 80.383 31.288 80.9484 31.288C81.5137 31.288 82.0204 31.1947 82.4684 31.008C82.9217 30.8213 83.3057 30.5547 83.6204 30.208C83.935 29.856 84.1777 29.4293 84.3484 28.928C84.519 28.4213 84.6044 27.8507 84.6044 27.216ZM92.4543 27.248C92.8489 27.248 93.1929 27.2 93.4863 27.104C93.7796 27.0027 94.0223 26.8613 94.2143 26.68C94.4116 26.4933 94.5583 26.2693 94.6543 26.008C94.7503 25.7413 94.7983 25.4453 94.7983 25.12C94.7983 24.8107 94.7503 24.5307 94.6543 24.28C94.5583 24.0293 94.4143 23.816 94.2223 23.64C94.0303 23.464 93.7876 23.3307 93.4943 23.24C93.2009 23.144 92.8543 23.096 92.4543 23.096H90.8463V27.248H92.4543ZM92.4543 21.432C93.2276 21.432 93.8969 21.5227 94.4623 21.704C95.0276 21.8853 95.4943 22.1387 95.8623 22.464C96.2303 22.7893 96.5023 23.1787 96.6783 23.632C96.8596 24.0853 96.9503 24.5813 96.9503 25.12C96.9503 25.68 96.8569 26.1947 96.6703 26.664C96.4836 27.128 96.2036 27.528 95.8303 27.864C95.4569 28.2 94.9876 28.4613 94.4223 28.648C93.8623 28.8347 93.2063 28.928 92.4543 28.928H90.8463V33H88.6943V21.432H92.4543ZM102.361 27.248C102.755 27.248 103.099 27.2 103.393 27.104C103.686 27.0027 103.929 26.8613 104.121 26.68C104.318 26.4933 104.465 26.2693 104.561 26.008C104.657 25.7413 104.705 25.4453 104.705 25.12C104.705 24.8107 104.657 24.5307 104.561 24.28C104.465 24.0293 104.321 23.816 104.129 23.64C103.937 23.464 103.694 23.3307 103.401 23.24C103.107 23.144 102.761 23.096 102.361 23.096H100.753V27.248H102.361ZM102.361 21.432C103.134 21.432 103.803 21.5227 104.369 21.704C104.934 21.8853 105.401 22.1387 105.769 22.464C106.137 22.7893 106.409 23.1787 106.585 23.632C106.766 24.0853 106.857 24.5813 106.857 25.12C106.857 25.68 106.763 26.1947 106.577 26.664C106.39 27.128 106.11 27.528 105.737 27.864C105.363 28.2 104.894 28.4613 104.329 28.648C103.769 28.8347 103.113 28.928 102.361 28.928H100.753V33H98.6005V21.432H102.361ZM110.667 33H108.507V21.432H110.667V33ZM123.009 21.432V33H121.905C121.734 33 121.59 32.9733 121.473 32.92C121.361 32.8613 121.251 32.7653 121.145 32.632L115.105 24.92C115.137 25.272 115.153 25.5973 115.153 25.896V33H113.257V21.432H114.385C114.475 21.432 114.553 21.4373 114.617 21.448C114.686 21.4533 114.745 21.4693 114.793 21.496C114.846 21.5173 114.897 21.552 114.945 21.6C114.993 21.6427 115.046 21.7013 115.105 21.776L121.169 29.52C121.153 29.3333 121.139 29.1493 121.129 28.968C121.118 28.7867 121.113 28.6187 121.113 28.464V21.432H123.009ZM135.121 27.2V31.88C134.534 32.312 133.908 32.6293 133.241 32.832C132.58 33.0293 131.87 33.128 131.113 33.128C130.169 33.128 129.313 32.9813 128.545 32.688C127.782 32.3947 127.129 31.9867 126.585 31.464C126.046 30.9413 125.63 30.3173 125.337 29.592C125.044 28.8667 124.897 28.0747 124.897 27.216C124.897 26.3467 125.038 25.5493 125.321 24.824C125.604 24.0987 126.004 23.4747 126.521 22.952C127.044 22.4293 127.676 22.024 128.417 21.736C129.158 21.448 129.99 21.304 130.913 21.304C131.382 21.304 131.82 21.3413 132.225 21.416C132.636 21.4907 133.014 21.5947 133.361 21.728C133.713 21.856 134.033 22.0133 134.321 22.2C134.609 22.3867 134.873 22.592 135.113 22.816L134.497 23.792C134.401 23.9467 134.276 24.0427 134.121 24.08C133.966 24.112 133.798 24.072 133.617 23.96C133.441 23.8587 133.265 23.7573 133.089 23.656C132.913 23.5547 132.716 23.4667 132.497 23.392C132.284 23.3173 132.041 23.256 131.769 23.208C131.502 23.16 131.193 23.136 130.841 23.136C130.27 23.136 129.753 23.232 129.289 23.424C128.83 23.616 128.438 23.8907 128.113 24.248C127.788 24.6053 127.537 25.0347 127.361 25.536C127.185 26.0373 127.097 26.5973 127.097 27.216C127.097 27.8773 127.19 28.4693 127.377 28.992C127.569 29.5093 127.836 29.9493 128.177 30.312C128.524 30.6693 128.94 30.944 129.425 31.136C129.91 31.3227 130.452 31.416 131.049 31.416C131.476 31.416 131.857 31.3707 132.193 31.28C132.529 31.1893 132.857 31.0667 133.177 30.912V28.816H131.721C131.582 28.816 131.473 28.7787 131.393 28.704C131.318 28.624 131.281 28.528 131.281 28.416V27.2H135.121ZM150.837 21.432V33H149.733C149.562 33 149.418 32.9733 149.301 32.92C149.189 32.8613 149.08 32.7653 148.973 32.632L142.933 24.92C142.965 25.272 142.981 25.5973 142.981 25.896V33H141.085V21.432H142.213C142.304 21.432 142.381 21.4373 142.445 21.448C142.514 21.4533 142.573 21.4693 142.621 21.496C142.674 21.5173 142.725 21.552 142.773 21.6C142.821 21.6427 142.874 21.7013 142.933 21.776L148.997 29.52C148.981 29.3333 148.968 29.1493 148.957 28.968C148.946 28.7867 148.941 28.6187 148.941 28.464V21.432H150.837ZM164.445 27.216C164.445 28.064 164.304 28.8507 164.021 29.576C163.744 30.296 163.349 30.92 162.837 31.448C162.325 31.976 161.709 32.3893 160.989 32.688C160.269 32.9813 159.469 33.128 158.589 33.128C157.714 33.128 156.917 32.9813 156.197 32.688C155.477 32.3893 154.858 31.976 154.341 31.448C153.829 30.92 153.432 30.296 153.149 29.576C152.866 28.8507 152.725 28.064 152.725 27.216C152.725 26.368 152.866 25.584 153.149 24.864C153.432 24.1387 153.829 23.512 154.341 22.984C154.858 22.456 155.477 22.0453 156.197 21.752C156.917 21.4533 157.714 21.304 158.589 21.304C159.176 21.304 159.728 21.3733 160.245 21.512C160.762 21.6453 161.237 21.8373 161.669 22.088C162.101 22.3333 162.488 22.6347 162.829 22.992C163.176 23.344 163.469 23.7387 163.709 24.176C163.949 24.6133 164.13 25.088 164.253 25.6C164.381 26.112 164.445 26.6507 164.445 27.216ZM162.245 27.216C162.245 26.5813 162.16 26.0133 161.989 25.512C161.818 25.0053 161.576 24.576 161.261 24.224C160.946 23.872 160.562 23.6027 160.109 23.416C159.661 23.2293 159.154 23.136 158.589 23.136C158.024 23.136 157.514 23.2293 157.061 23.416C156.613 23.6027 156.229 23.872 155.909 24.224C155.594 24.576 155.352 25.0053 155.181 25.512C155.01 26.0133 154.925 26.5813 154.925 27.216C154.925 27.8507 155.01 28.4213 155.181 28.928C155.352 29.4293 155.594 29.856 155.909 30.208C156.229 30.5547 156.613 30.8213 157.061 31.008C157.514 31.1947 158.024 31.288 158.589 31.288C159.154 31.288 159.661 31.1947 160.109 31.008C160.562 30.8213 160.946 30.5547 161.261 30.208C161.576 29.856 161.818 29.4293 161.989 28.928C162.16 28.4213 162.245 27.8507 162.245 27.216ZM181.493 21.432L177.901 33H175.957L173.429 25.096C173.359 24.904 173.295 24.6693 173.237 24.392C173.205 24.5253 173.173 24.6507 173.141 24.768C173.109 24.8853 173.074 24.9947 173.036 25.096L170.485 33H168.533L164.949 21.432H166.749C166.935 21.432 167.09 21.4773 167.213 21.568C167.341 21.6533 167.426 21.7707 167.469 21.92L169.437 28.84C169.479 29.0107 169.519 29.1973 169.557 29.4C169.599 29.5973 169.642 29.8053 169.685 30.024C169.727 29.8 169.773 29.5893 169.821 29.392C169.874 29.1947 169.93 29.0107 169.989 28.84L172.261 21.92C172.303 21.7973 172.386 21.6853 172.509 21.584C172.637 21.4827 172.791 21.432 172.973 21.432H173.605C173.791 21.432 173.943 21.4773 174.061 21.568C174.178 21.6587 174.266 21.776 174.325 21.92L176.589 28.84C176.701 29.1707 176.802 29.552 176.893 29.984C176.962 29.5627 177.039 29.1813 177.125 28.84L179.093 21.92C179.125 21.7867 179.205 21.672 179.333 21.576C179.466 21.48 179.623 21.432 179.805 21.432H181.493Z" fill="white"/>
</g>
<defs>
<filter id="filter0_b_13489_17964" x="-10" y="-10" width="255" height="73" filterUnits="userSpaceOnUse" color-interpolation-filters="sRGB">
<feFlood flood-opacity="0" result="BackgroundImageFix"/>
<feGaussianBlur in="BackgroundImageFix" stdDeviation="5"/>
<feComposite in2="SourceAlpha" operator="in" result="effect1_backgroundBlur_13489_17964"/>
<feBlend mode="normal" in="SourceGraphic" in2="effect1_backgroundBlur_13489_17964" result="shape"/>
</filter>
</defs>
</svg>
