<svg width="159" height="58" viewBox="0 0 159 58" fill="none" xmlns="http://www.w3.org/2000/svg">
<g filter="url(#filter0_b_13489_17951)">
<rect width="159" height="58" rx="29" fill="white" fill-opacity="0.45"/>
<rect x="0.59" y="0.59" width="157.82" height="56.82" rx="28.41" stroke="white" stroke-width="1.18"/>
<path d="M67.1379 22.54V37H65.7579C65.5446 37 65.3646 36.9667 65.2179 36.9C65.0779 36.8267 64.9412 36.7067 64.8079 36.54L57.2579 26.9C57.2979 27.34 57.3179 27.7467 57.3179 28.12V37H54.9479V22.54H56.3579C56.4712 22.54 56.5679 22.5467 56.6479 22.56C56.7346 22.5667 56.8079 22.5867 56.8679 22.62C56.9346 22.6467 56.9979 22.69 57.0579 22.75C57.1179 22.8033 57.1846 22.8767 57.2579 22.97L64.8379 32.65C64.8179 32.4167 64.8012 32.1867 64.7879 31.96C64.7746 31.7333 64.7679 31.5233 64.7679 31.33V22.54H67.1379ZM73.058 24.68V28.69H78.118V30.76H73.058V34.85H79.478V37H70.358V22.54H79.478V24.68H73.058ZM93.612 37H90.932C90.7453 37 90.5953 36.9533 90.482 36.86C90.3753 36.7667 90.2886 36.66 90.222 36.54L86.872 30.99C86.8186 31.1567 86.7553 31.3 86.682 31.42L83.472 36.54C83.392 36.6533 83.2986 36.76 83.192 36.86C83.092 36.9533 82.9586 37 82.792 37H80.282L85.082 29.56L80.472 22.54H83.152C83.3386 22.54 83.472 22.5667 83.552 22.62C83.6386 22.6667 83.7186 22.7467 83.792 22.86L87.082 28.16C87.1486 27.9933 87.2286 27.8267 87.322 27.66L90.342 22.91C90.4153 22.7833 90.4953 22.69 90.582 22.63C90.6686 22.57 90.7786 22.54 90.912 22.54H93.482L88.832 29.45L93.612 37ZM105.38 24.75H101.02V37H98.3299V24.75H93.9699V22.54H105.38V24.75Z" fill="white"/>
</g>
<defs>
<filter id="filter0_b_13489_17951" x="-10" y="-10" width="179" height="78" filterUnits="userSpaceOnUse" color-interpolation-filters="sRGB">
<feFlood flood-opacity="0" result="BackgroundImageFix"/>
<feGaussianBlur in="BackgroundImageFix" stdDeviation="5"/>
<feComposite in2="SourceAlpha" operator="in" result="effect1_backgroundBlur_13489_17951"/>
<feBlend mode="normal" in="SourceGraphic" in2="effect1_backgroundBlur_13489_17951" result="shape"/>
</filter>
</defs>
</svg>
