<svg width="37" height="22" viewBox="0 0 37 22" fill="none" xmlns="http://www.w3.org/2000/svg">
<rect x="1.30664" y="1" width="34.4893" height="20" rx="1" fill="white" stroke="#6E768A" stroke-width="2"/>
<path d="M7.02905 2.5C7.02905 3.88071 5.7393 5 4.14831 5V17C5.7393 17 7.02905 18.1193 7.02905 19.5C7.02905 20.8807 5.7393 22 4.14831 22C3.20584 22 2.36908 21.6072 1.84351 21H1.26758V1H1.84351C2.36908 0.392777 3.20584 0 4.14831 0C5.7393 0 7.02905 1.11929 7.02905 2.5Z" fill="#6E768A"/>
<path d="M32.9547 5C31.3637 5 30.074 3.88071 30.074 2.5C30.074 1.11929 31.3637 0 32.9547 0C33.8972 0 34.7339 0.392777 35.2595 1H35.8354V21H35.2595C34.7339 21.6072 33.8972 22 32.9547 22C31.3637 22 30.074 20.8807 30.074 19.5C30.074 18.1193 31.3637 17 32.9547 17V5Z" fill="#6E768A"/>
<ellipse cx="18.5505" cy="11" rx="5.76147" ry="6" fill="#6E768A"/>
<g clip-path="url(#clip0_13489_18039)">
<path d="M18.7021 10.5417C17.7938 10.2958 17.5018 10.0417 17.5018 9.64583C17.5018 9.19167 17.9059 8.875 18.582 8.875C19.2942 8.875 19.5583 9.22917 19.5823 9.75H20.4665C20.4385 9.03333 20.0184 8.375 19.1822 8.1625V7.25H17.9819V8.15C17.2057 8.325 16.5815 8.85 16.5815 9.65417C16.5815 10.6167 17.3457 11.0958 18.462 11.375C19.4623 11.625 19.6623 11.9917 19.6623 12.3792C19.6623 12.6667 19.4663 13.125 18.582 13.125C17.7578 13.125 17.4338 12.7417 17.3897 12.25H16.5095C16.5575 13.1625 17.2137 13.675 17.9819 13.8458V14.75H19.1822V13.8542C19.9624 13.7 20.5826 13.2292 20.5826 12.375C20.5826 11.1917 19.6103 10.7875 18.7021 10.5417Z" fill="white"/>
</g>
<defs>
<clipPath id="clip0_13489_18039">
<rect width="9.60245" height="10" fill="white" transform="translate(13.7498 6)"/>
</clipPath>
</defs>
</svg>
