<svg width="37" height="22" viewBox="0 0 37 22" fill="none" xmlns="http://www.w3.org/2000/svg">
<path d="M2.65682 0C1.59616 0 0.736328 0.89543 0.736328 2V5H36.2654V2C36.2654 0.895431 35.4055 0 34.3449 0H2.65682Z" fill="white"/>
<path fill-rule="evenodd" clip-rule="evenodd" d="M36.2654 10H0.736328V20C0.736328 21.1046 1.59616 22 2.65682 22H34.3449C35.4055 22 36.2654 21.1046 36.2654 20V10ZM3.61706 16.5C3.61706 15.6716 4.26194 15 5.05743 15H6.01767C6.81317 15 7.45804 15.6716 7.45804 16.5C7.45804 17.3284 6.81317 18 6.01767 18H5.05743C4.26194 18 3.61706 17.3284 3.61706 16.5ZM10.8189 15C10.0234 15 9.37853 15.6716 9.37853 16.5C9.37853 17.3284 10.0234 18 10.8189 18H14.6599C15.4554 18 16.1002 17.3284 16.1002 16.5C16.1002 15.6716 15.4554 15 14.6599 15H10.8189Z" fill="white"/>
</svg>
