<svg width="22" height="22" viewBox="0 0 22 22" fill="none" xmlns="http://www.w3.org/2000/svg">
<mask id="mask0_14374_3736" style="mask-type:luminance" maskUnits="userSpaceOnUse" x="1" y="1" width="20" height="20">
<path fill-rule="evenodd" clip-rule="evenodd" d="M1.7002 11.0001C1.7002 16.1406 5.86739 20.3078 11.0079 20.3078C16.1484 20.3078 20.3156 16.1406 20.3156 11.0001C20.3156 5.85958 16.1484 1.69238 11.0079 1.69238C5.86739 1.69238 1.7002 5.85958 1.7002 11.0001ZM15.3542 7.54126C14.9257 7.07609 14.2155 7.07609 13.7871 7.54126L9.67185 12.0092L8.22869 10.4424C7.80024 9.97719 7.09003 9.97719 6.66158 10.4424C6.25153 10.8876 6.25153 11.5961 6.66158 12.0413L8.8883 14.4589C9.31675 14.9241 10.027 14.9241 10.4554 14.4589L15.3542 9.14021C15.7642 8.695 15.7642 7.98647 15.3542 7.54126Z" fill="white"/>
</mask>
<g mask="url(#mask0_14374_3736)">
<rect x="0.0078125" width="22" height="22" fill="#C8C7CC"/>
</g>
</svg>
