<svg width="22" height="22" viewBox="0 0 22 22" fill="none" xmlns="http://www.w3.org/2000/svg">
<mask id="mask0_14374_3730" style="mask-type:luminance" maskUnits="userSpaceOnUse" x="2" y="0" width="18" height="22">
<path fill-rule="evenodd" clip-rule="evenodd" d="M12.7249 20.0838C13.6464 19.35 14.5677 18.5209 15.4299 17.6108C17.9444 14.9567 19.4695 12.1606 19.4695 9.30773C19.4695 4.63455 15.6811 0.846191 11.0079 0.846191C6.33475 0.846191 2.54639 4.63455 2.54639 9.30773C2.54639 12.1606 4.0715 14.9567 6.58597 17.6108C7.44815 18.5209 8.3694 19.35 9.29093 20.0838C9.61397 20.3411 9.91455 20.5684 10.1853 20.764C10.3503 20.8831 10.4705 20.9664 10.5386 21.0118C10.8228 21.2013 11.1931 21.2013 11.4773 21.0118C11.5454 20.9664 11.6656 20.8831 11.8306 20.764C12.1013 20.5684 12.4019 20.3411 12.7249 20.0838ZM7.62331 9.30773C7.62331 11.177 9.13865 12.6923 11.0079 12.6923C12.8772 12.6923 14.3925 11.177 14.3925 9.30773C14.3925 7.43846 12.8772 5.92311 11.0079 5.92311C9.13865 5.92311 7.62331 7.43846 7.62331 9.30773Z" fill="white"/>
</mask>
<g mask="url(#mask0_14374_3730)">
<rect x="0.0078125" width="22" height="22" fill="#53178C"/>
</g>
</svg>
