<svg xmlns="http://www.w3.org/2000/svg" xmlns:xlink="http://www.w3.org/1999/xlink" version="1.1" width="1636" height="1080" viewBox="0 0 1636 1080">
<defs>
<clipPath id="clip_0">
<path transform="matrix(1,0,0,-1,0,1080)" d="M0 1080H1636V0H0Z"/>
</clipPath>
</defs>
<g id="layer_1" data-name="Layer 1">
<g clip-path="url(#clip_0)">
<path transform="matrix(1,0,0,-1,853.8135,397.2412)" d="M0 0 45.985-79.647C47.298-81.918 47.295-84.526 45.985-86.797L-13.027-189.008C-14.34-191.282-16.594-192.582-19.218-192.582-21.842-192.582-24.096-191.282-25.408-189.008L-180.264 79.208C-181.575 81.481-183.829 82.783-186.454 82.783-189.078 82.783-191.332 81.481-192.645 79.208L-347.502-189.008C-348.814-191.282-351.068-192.582-353.692-192.582-356.316-192.582-358.57-191.282-359.883-189.008L-418.896-86.797C-420.208-84.523-420.208-81.921-418.896-79.647L-192.645 312.225C-191.332 314.499-189.078 315.8-186.454 315.8-183.829 315.8-181.575 314.497-180.264 312.225L-123.765 214.368-67.267 116.511Z" fill="#21034f" fill-rule="evenodd"/>
<path transform="matrix(1,0,0,-1,1242.9063,484.03559)" d="M0 0C1.31-2.271 1.31-4.878 0-7.148L-59.014-109.364C-60.326-111.637-62.58-112.938-65.204-112.938-67.828-112.938-70.085-111.637-71.395-109.364-125.081-16.381-178.759 76.593-232.443 169.578-233.755 171.852-236.009 173.152-238.633 173.152-241.258 173.152-243.512 171.852-244.823 169.578L-252.48 156.319C-253.79 154.053-256.046 152.745-258.671 152.745H-376.691C-379.315 152.745-381.572 154.045-382.885 156.319-384.196 158.593-384.191 161.197-382.885 163.468-336.86 243.181-290.837 322.891-244.818 402.603-243.506 404.876-241.252 406.177-238.628 406.177-236.004 406.177-233.75 404.876-232.437 402.603-154.958 268.402-77.48 134.198 0 0" fill="#21034f" fill-rule="evenodd"/>
<path transform="matrix(1,0,0,-1,811.9922,379.31739)" d="M0 0 45.985-79.648C47.298-81.918 47.295-84.527 45.985-86.798L-13.027-189.009C-14.34-191.282-16.594-192.583-19.218-192.583-21.842-192.583-24.096-191.282-25.408-189.009L-180.264 79.208C-181.575 81.481-183.829 82.783-186.454 82.783-189.078 82.783-191.332 81.481-192.645 79.208L-347.502-189.009C-348.814-191.282-351.068-192.583-353.692-192.583-356.316-192.583-358.57-191.282-359.883-189.009L-418.896-86.798C-420.208-84.524-420.208-81.921-418.896-79.648L-192.645 312.225C-191.332 314.499-189.078 315.8-186.454 315.8-183.829 315.8-181.575 314.497-180.264 312.225L-123.765 214.368-67.266 116.51Z" fill="#aa61ff" fill-rule="evenodd"/>
<path transform="matrix(1,0,0,-1,1201.085,466.11183)" d="M0 0C1.31-2.271 1.31-4.878 0-7.149L-59.014-109.364C-60.326-111.638-62.58-112.938-65.204-112.938-67.828-112.938-70.085-111.638-71.395-109.364-125.081-16.382-178.759 76.592-232.443 169.577-233.755 171.851-236.009 173.151-238.633 173.151-241.258 173.151-243.512 171.851-244.823 169.577L-252.48 156.319C-253.79 154.053-256.046 152.745-258.671 152.745H-376.691C-379.315 152.745-381.572 154.045-382.885 156.319-384.196 158.593-384.191 161.197-382.885 163.468-336.86 243.181-290.837 322.891-244.818 402.603-243.506 404.876-241.252 406.177-238.628 406.177-236.004 406.177-233.749 404.876-232.437 402.603-154.958 268.401-77.48 134.198 0 0" fill="#aa61ff" fill-rule="evenodd"/>
<path transform="matrix(1,0,0,-1,227.8872,757.38577)" d="M0 0C7.386-3.868 13.192-9.609 17.422-17.206 21.652-24.808 23.77-33.979 23.77-44.732V-114.635H-.537V-48.391C-.537-37.784-3.191-29.645-8.495-23.979-13.798-18.32-21.039-15.484-30.216-15.484-39.394-15.484-46.669-18.32-52.049-23.979-57.422-29.645-60.112-37.784-60.112-48.391V-114.635H-84.418V-48.391C-84.418-37.784-87.073-29.645-92.376-23.979-97.68-18.32-104.921-15.484-114.098-15.484-123.276-15.484-130.551-18.32-135.931-23.979-141.304-29.645-143.994-37.784-143.994-48.391V-114.635H-168.51V3.874H-143.994V-9.68C-139.98-4.802-134.892-1.004-128.725 1.721-122.558 4.446-115.965 5.812-108.935 5.812-99.471 5.812-91.011 3.798-83.555-.216-76.104-4.23-70.363-10.035-66.349-17.638-62.767-10.467-57.177-4.767-49.575-.537-41.973 3.693-33.799 5.812-25.053 5.812-15.735 5.812-7.386 3.874 0 0" fill="#21034f"/>
<path transform="matrix(1,0,0,-1,389.478,791.36526)" d="M0 0C-3.373 6.021-7.777 10.606-13.227 13.763-18.676 16.914-24.557 18.495-30.864 18.495-37.177 18.495-43.052 16.954-48.502 13.868-53.951 10.787-58.362 6.271-61.729 .32-65.101-5.631-66.781-12.69-66.781-20.864-66.781-29.038-65.101-36.209-61.729-42.37-58.362-48.537-53.916-53.233-48.391-56.46-42.877-59.687-37.031-61.297-30.864-61.297-24.557-61.297-18.676-59.722-13.227-56.565-7.777-53.415-3.373-48.794 0-42.696 3.366-36.6 5.053-29.47 5.053-21.296 5.053-13.122 3.366-6.021 0 0M-84.523 10.753C-79.582 19.924-72.843 27.06-64.307 32.153-55.777 37.241-46.349 39.791-36.028 39.791-26.705 39.791-18.571 37.959-11.617 34.307-4.662 30.648 .893 26.091 5.053 20.647V37.854H29.791V-80.655H5.053V-63.019C.893-68.613-4.767-73.275-11.938-77.003-19.108-80.726-27.282-82.593-36.454-82.593-46.641-82.593-55.958-79.979-64.418-74.739-72.878-69.512-79.582-62.195-84.523-52.802-89.471-43.414-91.945-32.767-91.945-20.864-91.945-8.962-89.471 1.575-84.523 10.753" fill="#21034f"/>
<path transform="matrix(1,0,0,-1,512.4385,756.6328)" d="M0 0C5.951 3.366 13.011 5.059 21.185 5.059V-20.321H14.948C5.339-20.321-1.937-22.767-6.884-27.638-11.832-32.516-14.3-40.97-14.3-53.018V-115.388H-38.822V3.121H-14.3V-14.085C-10.718-8.063-5.951-3.367 0 0" fill="#21034f"/>
<path transform="matrix(1,0,0,-1,0,1080)" d="M601.286 207.979H576.769V326.488H601.286ZM578.059 346.705C575.048 349.715 573.543 353.443 573.543 357.89 573.543 362.329 575.048 366.063 578.059 369.074 581.069 372.084 584.797 373.59 589.243 373.59 593.543 373.59 597.202 372.084 600.212 369.074 603.223 366.063 604.728 362.329 604.728 357.89 604.728 353.443 603.223 349.715 600.212 346.705 597.202 343.694 593.543 342.188 589.243 342.188 584.797 342.188 581.069 343.694 578.059 346.705" fill="#21034f"/>
<path transform="matrix(1,0,0,-1,740.0342,791.36526)" d="M0 0C-3.372 6.021-7.783 10.606-13.232 13.763-18.682 16.914-24.557 18.495-30.864 18.495-37.177 18.495-43.058 16.954-48.501 13.868-53.957 10.787-58.362 6.271-61.728 .32-65.101-5.631-66.787-12.69-66.787-20.864-66.787-29.038-65.101-36.209-61.728-42.37-58.362-48.537-53.916-53.233-48.396-56.46-42.877-59.687-37.031-61.297-30.864-61.297-24.557-61.297-18.682-59.722-13.232-56.565-7.783-53.415-3.372-48.794 0-42.696 3.367-36.6 5.053-29.47 5.053-21.296 5.053-13.122 3.367-6.021 0 0M-84.529 10.753C-79.582 19.924-72.843 27.06-64.313 32.153-55.783 37.241-46.354 39.791-36.027 39.791-26.71 39.791-18.571 37.959-11.616 34.307-4.662 30.648 .893 26.091 5.053 20.647V37.854H29.785V-80.655H5.053V-63.019C.893-68.613-4.772-73.275-11.937-77.003-19.113-80.726-27.282-82.593-36.459-82.593-46.64-82.593-55.958-79.979-64.418-74.739-72.884-69.512-79.582-62.195-84.529-52.802-89.477-43.414-91.951-32.767-91.951-20.864-91.951-8.962-89.477 1.575-84.529 10.753" fill="#21034f"/>
<path transform="matrix(1,0,0,-1,909.0176,757.38577)" d="M0 0C7.386-3.868 13.156-9.609 17.316-17.206 21.471-24.808 23.554-33.979 23.554-44.732V-114.635H-.753V-48.391C-.753-37.784-3.407-29.645-8.711-23.979-14.015-18.32-21.255-15.484-30.433-15.484-39.61-15.484-46.886-18.32-52.266-23.979-57.639-29.645-60.328-37.784-60.328-48.391V-114.635H-84.845V3.874H-60.328V-9.68C-56.314-4.802-51.186-1.004-44.949 1.721-38.712 4.446-32.084 5.812-25.054 5.812-15.735 5.812-7.387 3.874 0 0" fill="#21034f"/>
<path transform="matrix(1,0,0,-1,1070.8408,757.38577)" d="M0 0C7.387-3.868 13.157-9.609 17.317-17.206 21.472-24.808 23.554-33.979 23.554-44.732V-114.635H-.752V-48.391C-.752-37.784-3.407-29.645-8.71-23.979-14.014-18.32-21.255-15.484-30.432-15.484-39.609-15.484-46.885-18.32-52.265-23.979-57.638-29.645-60.328-37.784-60.328-48.391V-114.635H-84.844V3.874H-60.328V-9.68C-56.313-4.802-51.186-1.004-44.948 1.721-38.711 4.446-32.083 5.812-25.053 5.812-15.735 5.812-7.386 3.874 0 0" fill="#21034f"/>
<path transform="matrix(1,0,0,-1,1231.4639,802.11819)" d="M0 0C-.141 9.031-3.367 16.272-9.68 21.722-15.986 27.171-23.805 29.896-33.123 29.896-41.582 29.896-48.823 27.206-54.844 21.826-60.865 16.453-64.453 9.172-65.597 0ZM24.737-19.791H-65.813C-65.102-29.254-61.589-36.856-55.276-42.592-48.969-48.327-41.227-51.191-32.043-51.191-18.857-51.191-9.534-45.672-4.085-34.634H22.369C18.786-45.532 12.293-54.453 2.905-61.408-6.488-68.362-18.14-71.84-32.043-71.84-43.374-71.84-53.52-69.296-62.481-64.202-71.443-59.115-78.474-51.944-83.562-42.696-88.649-33.449-91.192-22.731-91.192-10.543-91.192 1.646-88.719 12.363-83.771 21.61-78.829 30.864-71.875 37.993-62.913 43.011-53.951 48.029-43.659 50.544-32.043 50.544-20.864 50.544-10.899 48.099-2.147 43.228 6.593 38.35 13.407 31.506 18.285 22.689 23.156 13.868 25.596 3.722 25.596-7.748 25.596-12.194 25.31-16.208 24.737-19.791" fill="#21034f"/>
<path transform="matrix(1,0,0,-1,0,1080)" d="M1328.636 207.979H1304.12V367.136H1328.636Z" fill="#21034f"/>
<path transform="matrix(1,0,0,-1,0,1080)" d="M1407.459 207.979H1382.943V367.136H1407.459Z" fill="#21034f"/>
<path transform="matrix(1,0,0,-1,1546.832,791.36526)" d="M0 0C-3.366 6.021-7.777 10.606-13.227 13.763-18.676 16.914-24.557 18.495-30.864 18.495-37.171 18.495-43.052 16.954-48.501 13.868-53.951 10.787-58.355 6.271-61.728 .32-65.095-5.631-66.78-12.69-66.78-20.864-66.78-29.038-65.095-36.209-61.728-42.37-58.355-48.537-53.91-53.233-48.391-56.46-42.871-59.687-37.031-61.297-30.864-61.297-24.557-61.297-18.676-59.722-13.227-56.565-7.777-53.415-3.366-48.794 0-42.696 3.367-36.6 5.059-29.47 5.059-21.296 5.059-13.122 3.367-6.021 0 0M-84.523 10.753C-79.575 19.924-72.837 27.06-64.307 32.153-55.777 37.241-46.349 39.791-36.021 39.791-26.704 39.791-18.57 37.959-11.61 34.307-4.661 30.648 .898 26.091 5.059 20.647V37.854H29.791V-80.655H5.059V-63.019C.898-68.613-4.767-73.275-11.937-77.003-19.107-80.726-27.281-82.593-36.453-82.593-46.635-82.593-55.958-79.979-64.412-74.739-72.878-69.512-79.575-62.195-84.523-52.802-89.471-43.414-91.944-32.767-91.944-20.864-91.944-8.962-89.471 1.575-84.523 10.753" fill="#21034f"/>
<path transform="matrix(1,0,0,-1,504.6758,973.5869)" d="M0 0C-1.499 2.678-3.459 4.714-5.881 6.114-8.302 7.515-10.916 8.221-13.717 8.221-16.523 8.221-19.137 7.532-21.558 6.167-23.979 4.796-25.94 2.783-27.439 .141-28.933-2.503-29.686-5.642-29.686-9.271-29.686-12.905-28.933-16.091-27.439-18.833-25.94-21.575-23.962-23.658-21.511-25.094-19.055-26.529-16.459-27.247-13.717-27.247-10.916-27.247-8.302-26.547-5.881-25.141-3.459-23.74-1.499-21.687 0-18.974 1.494-16.267 2.247-13.099 2.247-9.463 2.247-5.834 1.494-2.678 0 0M-37.568 4.778C-35.368 8.856-32.375 12.025-28.583 14.289-24.791 16.553-20.601 17.685-16.015 17.685-11.873 17.685-8.255 16.873-5.163 15.245-2.071 13.618 .397 11.599 2.247 9.178V16.821H13.239V-35.847H2.247V-28.011C.397-30.496-2.124-32.567-5.309-34.225-8.495-35.882-12.129-36.71-16.202-36.71-20.729-36.71-24.872-35.549-28.629-33.221-32.393-30.894-35.368-27.644-37.568-23.472-39.767-19.294-40.87-14.563-40.87-9.271-40.87-3.984-39.767 .7-37.568 4.778" fill="#aa61ff"/>
<path transform="matrix(1,0,0,-1,552.4893,968.7617)" d="M0 0C2.2 4.113 5.239 7.281 9.125 9.51 13.011 11.745 17.474 12.859 22.509 12.859 28.88 12.859 34.155 11.342 38.332 8.32 42.504 5.292 45.322 .975 46.792-4.633H35.03C34.079-2.024 32.544 .018 30.444 1.482 28.344 2.946 25.695 3.682 22.509 3.682 18.046 3.682 14.493 2.106 11.85-1.05 9.207-4.207 7.882-8.617 7.882-14.288 7.882-19.966 9.207-24.394 11.85-27.579 14.493-30.765 18.046-32.357 22.509-32.357 28.816-32.357 32.994-29.587 35.03-24.038H46.792C45.264-29.394 42.393-33.647 38.187-36.804 33.98-39.954 28.752-41.535 22.509-41.535 17.474-41.535 13.011-40.403 9.125-38.14 5.239-35.876 2.2-32.69 0-28.583-2.2-24.47-3.302-19.709-3.302-14.288-3.302-8.874-2.2-4.107 0 0" fill="#aa61ff"/>
<path transform="matrix(1,0,0,-1,642.8765,965.6523)" d="M0 0V-29.154C0-31.132 .461-32.55 1.389-33.413 2.311-34.271 3.886-34.703 6.12-34.703H12.813V-43.781H4.207C-.7-43.781-4.463-42.638-7.071-40.339-9.685-38.046-10.992-34.317-10.992-29.154V0H-17.206V8.887H-10.992V21.984H0V8.887H12.813V0Z" fill="#aa61ff"/>
<path transform="matrix(1,0,0,-1,0,1080)" d="M695.952 70.566H685.054V123.234H695.952ZM685.625 132.219C684.289 133.561 683.618 135.218 683.618 137.189 683.618 139.168 684.289 140.825 685.625 142.161 686.967 143.503 688.624 144.168 690.596 144.168 692.51 144.168 694.138 143.503 695.474 142.161 696.81 140.825 697.481 139.168 697.481 137.189 697.481 135.218 696.81 133.561 695.474 132.219 694.138 130.883 692.51 130.212 690.596 130.212 688.624 130.212 686.967 130.883 685.625 132.219" fill="#aa61ff"/>
<path transform="matrix(1,0,0,-1,750.9712,999.6846)" d="M0 0 14.913 42.919H26.482L6.406-9.749H-6.593L-26.57 42.919H-14.913Z" fill="#aa61ff"/>
<path transform="matrix(1,0,0,-1,841.2178,978.3652)" d="M0 0C-.063 4.014-1.493 7.229-4.3 9.65-7.106 12.071-10.577 13.285-14.72 13.285-18.478 13.285-21.698 12.089-24.376 9.703-27.048 7.311-28.646 4.072-29.154 0ZM10.992-8.798H-29.248C-28.933-13.005-27.369-16.383-24.562-18.927-21.762-21.477-18.319-22.754-14.241-22.754-8.378-22.754-4.235-20.298-1.814-15.392H9.942C8.35-20.233 5.467-24.201 1.29-27.294-2.882-30.386-8.063-31.932-14.241-31.932-19.276-31.932-23.787-30.8-27.766-28.536-31.751-26.272-34.872-23.087-37.136-18.979-39.399-14.866-40.531-10.105-40.531-4.685-40.531 .729-39.429 5.496-37.229 9.604-35.029 13.717-31.943 16.885-27.958 19.113-23.979 21.349-19.405 22.463-14.241 22.463-9.271 22.463-4.842 21.377-.956 19.213 2.936 17.042 5.957 14.003 8.128 10.082 10.292 6.161 11.378 1.651 11.378-3.442 11.378-5.42 11.249-7.205 10.992-8.798" fill="#aa61ff"/>
<path transform="matrix(1,0,0,-1,953.4023,956.7656)" d="M0 0-16.342-52.668H-27.818L-38.425-13.764-49.038-52.668H-60.509L-76.95 0H-65.858L-54.866-42.347-43.682 0H-32.311L-21.604-42.154-10.706 0Z" fill="#aa61ff"/>
<path transform="matrix(1,0,0,-1,1017.792,978.3652)" d="M0 0C-.064 4.014-1.494 7.229-4.301 9.65-7.106 12.071-10.578 13.285-14.721 13.285-18.478 13.285-21.698 12.089-24.377 9.703-27.049 7.311-28.647 4.072-29.155 0ZM10.992-8.798H-29.248C-28.934-13.005-27.37-16.383-24.563-18.927-21.763-21.477-18.32-22.754-14.242-22.754-8.379-22.754-4.236-20.298-1.814-15.392H9.941C8.349-20.233 5.467-24.201 1.289-27.294-2.883-30.386-8.063-31.932-14.242-31.932-19.277-31.932-23.787-30.8-27.767-28.536-31.751-26.272-34.873-23.087-37.137-18.979-39.4-14.866-40.532-10.105-40.532-4.685-40.532 .729-39.43 5.496-37.229 9.604-35.03 13.717-31.944 16.885-27.959 19.113-23.979 21.349-19.405 22.463-14.242 22.463-9.271 22.463-4.843 21.377-.957 19.213 2.935 17.042 5.957 14.003 8.127 10.082 10.292 6.161 11.377 1.651 11.377-3.442 11.377-5.42 11.248-7.205 10.992-8.798" fill="#aa61ff"/>
<path transform="matrix(1,0,0,-1,1097.9688,973.5869)" d="M0 0C-1.5 2.678-3.46 4.714-5.882 6.114-8.303 7.515-10.916 8.221-13.717 8.221-16.523 8.221-19.137 7.532-21.559 6.167-23.979 4.796-25.94 2.783-27.439 .141-28.934-2.503-29.686-5.642-29.686-9.271-29.686-12.905-28.934-16.091-27.439-18.833-25.94-21.575-23.962-23.658-21.512-25.094-19.056-26.529-16.459-27.247-13.717-27.247-10.916-27.247-8.303-26.547-5.882-25.141-3.46-23.74-1.5-21.687 0-18.974 1.493-16.267 2.246-13.099 2.246-9.463 2.246-5.834 1.493-2.678 0 0M-37.568 4.778C-35.368 8.856-32.376 12.025-28.583 14.289-24.791 16.553-20.602 17.685-16.016 17.685-11.873 17.685-8.256 16.873-5.164 15.245-2.071 13.618 .396 11.599 2.246 9.178V16.821H13.238V-35.847H2.246V-28.011C.396-30.496-2.124-32.567-5.31-34.225-8.495-35.882-12.13-36.71-16.202-36.71-20.73-36.71-24.872-35.549-28.63-33.221-32.393-30.894-35.368-27.644-37.568-23.472-39.768-19.294-40.87-14.563-40.87-9.271-40.87-3.984-39.768 .7-37.568 4.778" fill="#aa61ff"/>
<path transform="matrix(1,0,0,-1,1162.7774,958.1484)" d="M0 0C2.644 1.493 5.782 2.246 9.417 2.246V-9.038H6.646C2.375-9.038-.863-10.117-3.057-12.288-5.257-14.452-6.359-18.21-6.359-23.565V-51.285H-17.252V1.383H-6.359V-6.261C-4.767-3.589-2.648-1.5 0 0" fill="#aa61ff"/>
</g>
</g>
</svg>
