<svg width="33" height="34" viewBox="0 0 33 34" fill="none" xmlns="http://www.w3.org/2000/svg">
<g filter="url(#filter0_d_13992_14)">
<rect x="3" y="2.65674" width="27" height="27" rx="13.5" fill="white"/>
</g>
<path d="M16.5043 24.2567L15.3255 23.2202C11.1541 19.5567 8.40011 17.1382 8.40011 14.1728C8.3944 13.6045 8.50572 13.0408 8.72755 12.5147C8.94938 11.9885 9.27727 11.5106 9.69204 11.1087C10.1068 10.7068 10.6001 10.3891 11.1431 10.1742C11.6861 9.95922 12.2679 9.85136 12.8545 9.85689C13.5484 9.8614 14.2333 10.01 14.8629 10.2928C15.4925 10.5755 16.0522 10.9858 16.5043 11.4959C16.9552 10.9866 17.5135 10.5769 18.1415 10.2942C18.7696 10.0114 19.4528 9.86234 20.1453 9.85689C20.7319 9.85136 21.3137 9.95922 21.8567 10.1742C22.3997 10.3891 22.893 10.7068 23.3078 11.1087C23.7225 11.5106 24.0504 11.9885 24.2723 12.5147C24.4941 13.0408 24.6054 13.6045 24.5997 14.1728C24.5997 17.1382 21.8457 19.5567 17.6743 23.2287L16.5043 24.2567Z" fill="#D8D8D8"/>
<defs>
<filter id="filter0_d_13992_14" x="0" y="0.656738" width="33" height="33" filterUnits="userSpaceOnUse" color-interpolation-filters="sRGB">
<feFlood flood-opacity="0" result="BackgroundImageFix"/>
<feColorMatrix in="SourceAlpha" type="matrix" values="0 0 0 0 0 0 0 0 0 0 0 0 0 0 0 0 0 0 127 0" result="hardAlpha"/>
<feOffset dy="1"/>
<feGaussianBlur stdDeviation="1.5"/>
<feComposite in2="hardAlpha" operator="out"/>
<feColorMatrix type="matrix" values="0 0 0 0 0 0 0 0 0 0 0 0 0 0 0 0 0 0 0.25 0"/>
<feBlend mode="normal" in2="BackgroundImageFix" result="effect1_dropShadow_13992_14"/>
<feBlend mode="normal" in="SourceGraphic" in2="effect1_dropShadow_13992_14" result="shape"/>
</filter>
</defs>
</svg>
