<svg width="17" height="17" viewBox="0 0 17 17" fill="none" xmlns="http://www.w3.org/2000/svg">
<path d="M3.8335 6.79867H5.16683C6.50016 6.79867 7.16683 6.132 7.16683 4.79867V3.46533C7.16683 2.132 6.50016 1.46533 5.16683 1.46533H3.8335C2.50016 1.46533 1.8335 2.132 1.8335 3.46533V4.79867C1.8335 6.132 2.50016 6.79867 3.8335 6.79867Z" stroke="#53178C" stroke-miterlimit="10" stroke-linecap="round" stroke-linejoin="round"/>
<path d="M11.8335 6.79867H13.1668C14.5002 6.79867 15.1668 6.132 15.1668 4.79867V3.46533C15.1668 2.132 14.5002 1.46533 13.1668 1.46533H11.8335C10.5002 1.46533 9.8335 2.132 9.8335 3.46533V4.79867C9.8335 6.132 10.5002 6.79867 11.8335 6.79867Z" stroke="#53178C" stroke-miterlimit="10" stroke-linecap="round" stroke-linejoin="round"/>
<path d="M11.8335 14.7987H13.1668C14.5002 14.7987 15.1668 14.132 15.1668 12.7987V11.4653C15.1668 10.132 14.5002 9.46533 13.1668 9.46533H11.8335C10.5002 9.46533 9.8335 10.132 9.8335 11.4653V12.7987C9.8335 14.132 10.5002 14.7987 11.8335 14.7987Z" stroke="#53178C" stroke-miterlimit="10" stroke-linecap="round" stroke-linejoin="round"/>
<path d="M3.8335 14.7987H5.16683C6.50016 14.7987 7.16683 14.132 7.16683 12.7987V11.4653C7.16683 10.132 6.50016 9.46533 5.16683 9.46533H3.8335C2.50016 9.46533 1.8335 10.132 1.8335 11.4653V12.7987C1.8335 14.132 2.50016 14.7987 3.8335 14.7987Z" stroke="#53178C" stroke-miterlimit="10" stroke-linecap="round" stroke-linejoin="round"/>
</svg>
