<svg width="48" height="49" viewBox="0 0 48 49" fill="none" xmlns="http://www.w3.org/2000/svg">
<rect y="0.13208" width="48" height="48" rx="24" fill="#53178C"/>
<path d="M32.3335 20.1738H27.3335C26.9918 20.1738 26.7085 19.8905 26.7085 19.5488C26.7085 19.2072 26.9918 18.9238 27.3335 18.9238H32.3335C32.6752 18.9238 32.9585 19.2072 32.9585 19.5488C32.9585 19.8905 32.6752 20.1738 32.3335 20.1738Z" fill="#F2E7FF"/>
<path d="M18.9998 20.1738H15.6665C15.3248 20.1738 15.0415 19.8905 15.0415 19.5488C15.0415 19.2072 15.3248 18.9238 15.6665 18.9238H18.9998C19.3415 18.9238 19.6248 19.2072 19.6248 19.5488C19.6248 19.8905 19.3415 20.1738 18.9998 20.1738Z" fill="#F2E7FF"/>
<path d="M22.3332 23.0904C20.3832 23.0904 18.7915 21.4987 18.7915 19.5487C18.7915 17.5987 20.3832 16.0071 22.3332 16.0071C24.2832 16.0071 25.8748 17.5987 25.8748 19.5487C25.8748 21.4987 24.2832 23.0904 22.3332 23.0904ZM22.3332 17.2571C21.0665 17.2571 20.0415 18.2821 20.0415 19.5487C20.0415 20.8154 21.0665 21.8404 22.3332 21.8404C23.5998 21.8404 24.6248 20.8154 24.6248 19.5487C24.6248 18.2821 23.5998 17.2571 22.3332 17.2571Z" fill="#F2E7FF"/>
<path d="M32.3333 29.3403H29C28.6583 29.3403 28.375 29.057 28.375 28.7153C28.375 28.3737 28.6583 28.0903 29 28.0903H32.3333C32.675 28.0903 32.9583 28.3737 32.9583 28.7153C32.9583 29.057 32.675 29.3403 32.3333 29.3403Z" fill="#F2E7FF"/>
<path d="M20.6665 29.3403H15.6665C15.3248 29.3403 15.0415 29.057 15.0415 28.7153C15.0415 28.3737 15.3248 28.0903 15.6665 28.0903H20.6665C21.0082 28.0903 21.2915 28.3737 21.2915 28.7153C21.2915 29.057 21.0082 29.3403 20.6665 29.3403Z" fill="#F2E7FF"/>
<path d="M25.6667 32.2572C23.7167 32.2572 22.125 30.6655 22.125 28.7155C22.125 26.7655 23.7167 25.1738 25.6667 25.1738C27.6167 25.1738 29.2083 26.7655 29.2083 28.7155C29.2083 30.6655 27.6167 32.2572 25.6667 32.2572ZM25.6667 26.4238C24.4 26.4238 23.375 27.4488 23.375 28.7155C23.375 29.9822 24.4 31.0072 25.6667 31.0072C26.9333 31.0072 27.9583 29.9822 27.9583 28.7155C27.9583 27.4488 26.9333 26.4238 25.6667 26.4238Z" fill="#F2E7FF"/>
</svg>
