<svg width="375" height="242" viewBox="0 0 375 242" fill="none" xmlns="http://www.w3.org/2000/svg">
<rect width="375" height="242" fill="#F2E7FF"/>
<g clip-path="url(#clip0_13489_18991)">
<rect x="20.5" y="-9" width="353" height="235.609" fill="black"/>
<path opacity="0.9" d="M56.324 200.168C57.3693 200.168 58.2973 199.923 59.108 199.432C59.9187 198.941 60.5587 198.237 61.028 197.32H67.044C66.404 199.752 65.1347 201.672 63.236 203.08C61.3373 204.467 59.0547 205.16 56.388 205.16C53.7427 205.16 51.46 204.467 49.54 203.08C47.6413 201.693 46.34 199.816 45.636 197.448H43.14V194.6H45.156C45.1347 194.408 45.124 194.12 45.124 193.736C45.124 193.331 45.1347 193.021 45.156 192.808H43.14V189.928H45.668C46.372 187.581 47.6733 185.725 49.572 184.36C51.492 182.973 53.764 182.28 56.388 182.28C59.0547 182.28 61.3373 182.984 63.236 184.392C65.1347 185.8 66.404 187.72 67.044 190.152H61.028C60.5587 189.235 59.9187 188.541 59.108 188.072C58.2973 187.581 57.3693 187.336 56.324 187.336C55.3 187.336 54.3827 187.56 53.572 188.008C52.7613 188.456 52.1107 189.096 51.62 189.928H56.964V192.808H50.724C50.7027 193 50.692 193.309 50.692 193.736C50.692 194.12 50.7027 194.408 50.724 194.6H56.964V197.448H51.556C52.0467 198.323 52.6973 198.995 53.508 199.464C54.34 199.933 55.2787 200.168 56.324 200.168ZM83.7128 205L79.1368 198.12L75.1048 205H68.8968L76.0968 193.576L68.7368 182.536H75.1048L79.6168 189.32L83.5848 182.536H89.7928L82.6568 193.864L90.0808 205H83.7128ZM106.588 205L102.012 198.12L97.9798 205H91.7718L98.9718 193.576L91.6118 182.536H97.9798L102.492 189.32L106.46 182.536H112.668L105.532 193.864L112.956 205H106.588Z" fill="white"/>
<rect x="241.5" y="120" width="90" height="90" rx="5.66087" fill="white"/>
<path d="M246.606 125.106H249.798V128.298H246.606V125.106ZM249.798 125.106H252.989V128.298H249.798V125.106ZM252.989 125.106H256.181V128.298H252.989V125.106ZM256.181 125.106H259.372V128.298H256.181V125.106ZM259.372 125.106H262.564V128.298H259.372V125.106ZM262.564 125.106H265.755V128.298H262.564V125.106ZM265.755 125.106H268.947V128.298H265.755V125.106ZM281.713 125.106H284.904V128.298H281.713V125.106ZM291.287 125.106H294.479V128.298H291.287V125.106ZM294.479 125.106H297.67V128.298H294.479V125.106ZM297.67 125.106H300.862V128.298H297.67V125.106ZM304.053 125.106H307.245V128.298H304.053V125.106ZM307.245 125.106H310.436V128.298H307.245V125.106ZM310.436 125.106H313.628V128.298H310.436V125.106ZM313.628 125.106H316.819V128.298H313.628V125.106ZM316.819 125.106H320.011V128.298H316.819V125.106ZM320.011 125.106H323.202V128.298H320.011V125.106ZM323.202 125.106H326.394V128.298H323.202V125.106ZM246.606 128.298H249.798V131.489H246.606V128.298ZM265.755 128.298H268.947V131.489H265.755V128.298ZM275.33 128.298H278.521V131.489H275.33V128.298ZM288.096 128.298H291.287V131.489H288.096V128.298ZM291.287 128.298H294.479V131.489H291.287V128.298ZM297.67 128.298H300.862V131.489H297.67V128.298ZM304.053 128.298H307.245V131.489H304.053V128.298ZM323.202 128.298H326.394V131.489H323.202V128.298ZM246.606 131.489H249.798V134.681H246.606V131.489ZM252.989 131.489H256.181V134.681H252.989V131.489ZM256.181 131.489H259.372V134.681H256.181V131.489ZM259.372 131.489H262.564V134.681H259.372V131.489ZM265.755 131.489H268.947V134.681H265.755V131.489ZM275.33 131.489H278.521V134.681H275.33V131.489ZM278.521 131.489H281.713V134.681H278.521V131.489ZM284.904 131.489H288.096V134.681H284.904V131.489ZM291.287 131.489H294.479V134.681H291.287V131.489ZM294.479 131.489H297.67V134.681H294.479V131.489ZM304.053 131.489H307.245V134.681H304.053V131.489ZM310.436 131.489H313.628V134.681H310.436V131.489ZM313.628 131.489H316.819V134.681H313.628V131.489ZM316.819 131.489H320.011V134.681H316.819V131.489ZM323.202 131.489H326.394V134.681H323.202V131.489ZM246.606 134.681H249.798V137.872H246.606V134.681ZM252.989 134.681H256.181V137.872H252.989V134.681ZM256.181 134.681H259.372V137.872H256.181V134.681ZM259.372 134.681H262.564V137.872H259.372V134.681ZM265.755 134.681H268.947V137.872H265.755V134.681ZM272.138 134.681H275.33V137.872H272.138V134.681ZM275.33 134.681H278.521V137.872H275.33V134.681ZM284.904 134.681H288.096V137.872H284.904V134.681ZM291.287 134.681H294.479V137.872H291.287V134.681ZM294.479 134.681H297.67V137.872H294.479V134.681ZM304.053 134.681H307.245V137.872H304.053V134.681ZM310.436 134.681H313.628V137.872H310.436V134.681ZM313.628 134.681H316.819V137.872H313.628V134.681ZM316.819 134.681H320.011V137.872H316.819V134.681ZM323.202 134.681H326.394V137.872H323.202V134.681ZM246.606 137.872H249.798V141.064H246.606V137.872ZM252.989 137.872H256.181V141.064H252.989V137.872ZM256.181 137.872H259.372V141.064H256.181V137.872ZM259.372 137.872H262.564V141.064H259.372V137.872ZM265.755 137.872H268.947V141.064H265.755V137.872ZM278.521 137.872H281.713V141.064H278.521V137.872ZM281.713 137.872H284.904V141.064H281.713V137.872ZM284.904 137.872H288.096V141.064H284.904V137.872ZM288.096 137.872H291.287V141.064H288.096V137.872ZM291.287 137.872H294.479V141.064H291.287V137.872ZM304.053 137.872H307.245V141.064H304.053V137.872ZM310.436 137.872H313.628V141.064H310.436V137.872ZM313.628 137.872H316.819V141.064H313.628V137.872ZM316.819 137.872H320.011V141.064H316.819V137.872ZM323.202 137.872H326.394V141.064H323.202V137.872ZM246.606 141.064H249.798V144.255H246.606V141.064ZM265.755 141.064H268.947V144.255H265.755V141.064ZM272.138 141.064H275.33V144.255H272.138V141.064ZM281.713 141.064H284.904V144.255H281.713V141.064ZM297.67 141.064H300.862V144.255H297.67V141.064ZM304.053 141.064H307.245V144.255H304.053V141.064ZM323.202 141.064H326.394V144.255H323.202V141.064ZM246.606 144.255H249.798V147.447H246.606V144.255ZM249.798 144.255H252.989V147.447H249.798V144.255ZM252.989 144.255H256.181V147.447H252.989V144.255ZM256.181 144.255H259.372V147.447H256.181V144.255ZM259.372 144.255H262.564V147.447H259.372V144.255ZM262.564 144.255H265.755V147.447H262.564V144.255ZM265.755 144.255H268.947V147.447H265.755V144.255ZM272.138 144.255H275.33V147.447H272.138V144.255ZM278.521 144.255H281.713V147.447H278.521V144.255ZM284.904 144.255H288.096V147.447H284.904V144.255ZM291.287 144.255H294.479V147.447H291.287V144.255ZM297.67 144.255H300.862V147.447H297.67V144.255ZM304.053 144.255H307.245V147.447H304.053V144.255ZM307.245 144.255H310.436V147.447H307.245V144.255ZM310.436 144.255H313.628V147.447H310.436V144.255ZM313.628 144.255H316.819V147.447H313.628V144.255ZM316.819 144.255H320.011V147.447H316.819V144.255ZM320.011 144.255H323.202V147.447H320.011V144.255ZM323.202 144.255H326.394V147.447H323.202V144.255ZM272.138 147.447H275.33V150.638H272.138V147.447ZM275.33 147.447H278.521V150.638H275.33V147.447ZM278.521 147.447H281.713V150.638H278.521V147.447ZM291.287 147.447H294.479V150.638H291.287V147.447ZM294.479 147.447H297.67V150.638H294.479V147.447ZM297.67 147.447H300.862V150.638H297.67V147.447ZM249.798 150.638H252.989V153.83H249.798V150.638ZM252.989 150.638H256.181V153.83H252.989V150.638ZM265.755 150.638H268.947V153.83H265.755V150.638ZM288.096 150.638H291.287V153.83H288.096V150.638ZM291.287 150.638H294.479V153.83H291.287V150.638ZM297.67 150.638H300.862V153.83H297.67V150.638ZM304.053 150.638H307.245V153.83H304.053V150.638ZM307.245 150.638H310.436V153.83H307.245V150.638ZM313.628 150.638H316.819V153.83H313.628V150.638ZM249.798 153.83H252.989V157.021H249.798V153.83ZM252.989 153.83H256.181V157.021H252.989V153.83ZM259.372 153.83H262.564V157.021H259.372V153.83ZM268.947 153.83H272.138V157.021H268.947V153.83ZM278.521 153.83H281.713V157.021H278.521V153.83ZM281.713 153.83H284.904V157.021H281.713V153.83ZM284.904 153.83H288.096V157.021H284.904V153.83ZM288.096 153.83H291.287V157.021H288.096V153.83ZM291.287 153.83H294.479V157.021H291.287V153.83ZM294.479 153.83H297.67V157.021H294.479V153.83ZM297.67 153.83H300.862V157.021H297.67V153.83ZM304.053 153.83H307.245V157.021H304.053V153.83ZM307.245 153.83H310.436V157.021H307.245V153.83ZM313.628 153.83H316.819V157.021H313.628V153.83ZM320.011 153.83H323.202V157.021H320.011V153.83ZM323.202 153.83H326.394V157.021H323.202V153.83ZM265.755 157.021H268.947V160.213H265.755V157.021ZM281.713 157.021H284.904V160.213H281.713V157.021ZM294.479 157.021H297.67V160.213H294.479V157.021ZM300.862 157.021H304.053V160.213H300.862V157.021ZM307.245 157.021H310.436V160.213H307.245V157.021ZM313.628 157.021H316.819V160.213H313.628V157.021ZM316.819 157.021H320.011V160.213H316.819V157.021ZM323.202 157.021H326.394V160.213H323.202V157.021ZM246.606 160.213H249.798V163.404H246.606V160.213ZM249.798 160.213H252.989V163.404H249.798V160.213ZM259.372 160.213H262.564V163.404H259.372V160.213ZM268.947 160.213H272.138V163.404H268.947V160.213ZM275.33 160.213H278.521V163.404H275.33V160.213ZM278.521 160.213H281.713V163.404H278.521V160.213ZM288.096 160.213H291.287V163.404H288.096V160.213ZM294.479 160.213H297.67V163.404H294.479V160.213ZM300.862 160.213H304.053V163.404H300.862V160.213ZM307.245 160.213H310.436V163.404H307.245V160.213ZM313.628 160.213H316.819V163.404H313.628V160.213ZM246.606 163.404H249.798V166.596H246.606V163.404ZM249.798 163.404H252.989V166.596H249.798V163.404ZM256.181 163.404H259.372V166.596H256.181V163.404ZM265.755 163.404H268.947V166.596H265.755V163.404ZM268.947 163.404H272.138V166.596H268.947V163.404ZM272.138 163.404H275.33V166.596H272.138V163.404ZM275.33 163.404H278.521V166.596H275.33V163.404ZM278.521 163.404H281.713V166.596H278.521V163.404ZM288.096 163.404H291.287V166.596H288.096V163.404ZM294.479 163.404H297.67V166.596H294.479V163.404ZM297.67 163.404H300.862V166.596H297.67V163.404ZM304.053 163.404H307.245V166.596H304.053V163.404ZM307.245 163.404H310.436V166.596H307.245V163.404ZM323.202 163.404H326.394V166.596H323.202V163.404ZM252.989 166.596H256.181V169.787H252.989V166.596ZM256.181 166.596H259.372V169.787H256.181V166.596ZM259.372 166.596H262.564V169.787H259.372V166.596ZM278.521 166.596H281.713V169.787H278.521V166.596ZM281.713 166.596H284.904V169.787H281.713V166.596ZM284.904 166.596H288.096V169.787H284.904V166.596ZM294.479 166.596H297.67V169.787H294.479V166.596ZM297.67 166.596H300.862V169.787H297.67V166.596ZM304.053 166.596H307.245V169.787H304.053V166.596ZM307.245 166.596H310.436V169.787H307.245V166.596ZM320.011 166.596H323.202V169.787H320.011V166.596ZM323.202 166.596H326.394V169.787H323.202V166.596ZM246.606 169.787H249.798V172.979H246.606V169.787ZM249.798 169.787H252.989V172.979H249.798V169.787ZM256.181 169.787H259.372V172.979H256.181V169.787ZM262.564 169.787H265.755V172.979H262.564V169.787ZM265.755 169.787H268.947V172.979H265.755V169.787ZM272.138 169.787H275.33V172.979H272.138V169.787ZM275.33 169.787H278.521V172.979H275.33V169.787ZM278.521 169.787H281.713V172.979H278.521V169.787ZM284.904 169.787H288.096V172.979H284.904V169.787ZM294.479 169.787H297.67V172.979H294.479V169.787ZM297.67 169.787H300.862V172.979H297.67V169.787ZM304.053 169.787H307.245V172.979H304.053V169.787ZM313.628 169.787H316.819V172.979H313.628V169.787ZM316.819 169.787H320.011V172.979H316.819V169.787ZM323.202 169.787H326.394V172.979H323.202V169.787ZM252.989 172.979H256.181V176.17H252.989V172.979ZM256.181 172.979H259.372V176.17H256.181V172.979ZM259.372 172.979H262.564V176.17H259.372V172.979ZM268.947 172.979H272.138V176.17H268.947V172.979ZM278.521 172.979H281.713V176.17H278.521V172.979ZM291.287 172.979H294.479V176.17H291.287V172.979ZM294.479 172.979H297.67V176.17H294.479V172.979ZM297.67 172.979H300.862V176.17H297.67V172.979ZM300.862 172.979H304.053V176.17H300.862V172.979ZM304.053 172.979H307.245V176.17H304.053V172.979ZM307.245 172.979H310.436V176.17H307.245V172.979ZM310.436 172.979H313.628V176.17H310.436V172.979ZM313.628 172.979H316.819V176.17H313.628V172.979ZM246.606 176.17H249.798V179.362H246.606V176.17ZM249.798 176.17H252.989V179.362H249.798V176.17ZM252.989 176.17H256.181V179.362H252.989V176.17ZM259.372 176.17H262.564V179.362H259.372V176.17ZM265.755 176.17H268.947V179.362H265.755V176.17ZM272.138 176.17H275.33V179.362H272.138V176.17ZM281.713 176.17H284.904V179.362H281.713V176.17ZM297.67 176.17H300.862V179.362H297.67V176.17ZM300.862 176.17H304.053V179.362H300.862V176.17ZM304.053 176.17H307.245V179.362H304.053V176.17ZM307.245 176.17H310.436V179.362H307.245V176.17ZM310.436 176.17H313.628V179.362H310.436V176.17ZM320.011 176.17H323.202V179.362H320.011V176.17ZM272.138 179.362H275.33V182.553H272.138V179.362ZM275.33 179.362H278.521V182.553H275.33V179.362ZM278.521 179.362H281.713V182.553H278.521V179.362ZM281.713 179.362H284.904V182.553H281.713V179.362ZM288.096 179.362H291.287V182.553H288.096V179.362ZM291.287 179.362H294.479V182.553H291.287V179.362ZM297.67 179.362H300.862V182.553H297.67V179.362ZM310.436 179.362H313.628V182.553H310.436V179.362ZM323.202 179.362H326.394V182.553H323.202V179.362ZM246.606 182.553H249.798V185.745H246.606V182.553ZM249.798 182.553H252.989V185.745H249.798V182.553ZM252.989 182.553H256.181V185.745H252.989V182.553ZM256.181 182.553H259.372V185.745H256.181V182.553ZM259.372 182.553H262.564V185.745H259.372V182.553ZM262.564 182.553H265.755V185.745H262.564V182.553ZM265.755 182.553H268.947V185.745H265.755V182.553ZM278.521 182.553H281.713V185.745H278.521V182.553ZM281.713 182.553H284.904V185.745H281.713V182.553ZM291.287 182.553H294.479V185.745H291.287V182.553ZM297.67 182.553H300.862V185.745H297.67V182.553ZM304.053 182.553H307.245V185.745H304.053V182.553ZM310.436 182.553H313.628V185.745H310.436V182.553ZM323.202 182.553H326.394V185.745H323.202V182.553ZM246.606 185.745H249.798V188.936H246.606V185.745ZM265.755 185.745H268.947V188.936H265.755V185.745ZM275.33 185.745H278.521V188.936H275.33V185.745ZM278.521 185.745H281.713V188.936H278.521V185.745ZM284.904 185.745H288.096V188.936H284.904V185.745ZM288.096 185.745H291.287V188.936H288.096V185.745ZM297.67 185.745H300.862V188.936H297.67V185.745ZM310.436 185.745H313.628V188.936H310.436V185.745ZM320.011 185.745H323.202V188.936H320.011V185.745ZM246.606 188.936H249.798V192.128H246.606V188.936ZM252.989 188.936H256.181V192.128H252.989V188.936ZM256.181 188.936H259.372V192.128H256.181V188.936ZM259.372 188.936H262.564V192.128H259.372V188.936ZM265.755 188.936H268.947V192.128H265.755V188.936ZM275.33 188.936H278.521V192.128H275.33V188.936ZM278.521 188.936H281.713V192.128H278.521V188.936ZM291.287 188.936H294.479V192.128H291.287V188.936ZM294.479 188.936H297.67V192.128H294.479V188.936ZM297.67 188.936H300.862V192.128H297.67V188.936ZM300.862 188.936H304.053V192.128H300.862V188.936ZM304.053 188.936H307.245V192.128H304.053V188.936ZM307.245 188.936H310.436V192.128H307.245V188.936ZM310.436 188.936H313.628V192.128H310.436V188.936ZM320.011 188.936H323.202V192.128H320.011V188.936ZM323.202 188.936H326.394V192.128H323.202V188.936ZM246.606 192.128H249.798V195.319H246.606V192.128ZM252.989 192.128H256.181V195.319H252.989V192.128ZM256.181 192.128H259.372V195.319H256.181V192.128ZM259.372 192.128H262.564V195.319H259.372V192.128ZM265.755 192.128H268.947V195.319H265.755V192.128ZM275.33 192.128H278.521V195.319H275.33V192.128ZM278.521 192.128H281.713V195.319H278.521V192.128ZM281.713 192.128H284.904V195.319H281.713V192.128ZM284.904 192.128H288.096V195.319H284.904V192.128ZM294.479 192.128H297.67V195.319H294.479V192.128ZM300.862 192.128H304.053V195.319H300.862V192.128ZM310.436 192.128H313.628V195.319H310.436V192.128ZM316.819 192.128H320.011V195.319H316.819V192.128ZM320.011 192.128H323.202V195.319H320.011V192.128ZM246.606 195.319H249.798V198.511H246.606V195.319ZM252.989 195.319H256.181V198.511H252.989V195.319ZM256.181 195.319H259.372V198.511H256.181V195.319ZM259.372 195.319H262.564V198.511H259.372V195.319ZM265.755 195.319H268.947V198.511H265.755V195.319ZM272.138 195.319H275.33V198.511H272.138V195.319ZM288.096 195.319H291.287V198.511H288.096V195.319ZM291.287 195.319H294.479V198.511H291.287V195.319ZM294.479 195.319H297.67V198.511H294.479V195.319ZM297.67 195.319H300.862V198.511H297.67V195.319ZM300.862 195.319H304.053V198.511H300.862V195.319ZM307.245 195.319H310.436V198.511H307.245V195.319ZM310.436 195.319H313.628V198.511H310.436V195.319ZM313.628 195.319H316.819V198.511H313.628V195.319ZM320.011 195.319H323.202V198.511H320.011V195.319ZM323.202 195.319H326.394V198.511H323.202V195.319ZM246.606 198.511H249.798V201.702H246.606V198.511ZM265.755 198.511H268.947V201.702H265.755V198.511ZM272.138 198.511H275.33V201.702H272.138V198.511ZM275.33 198.511H278.521V201.702H275.33V198.511ZM278.521 198.511H281.713V201.702H278.521V198.511ZM288.096 198.511H291.287V201.702H288.096V198.511ZM297.67 198.511H300.862V201.702H297.67V198.511ZM300.862 198.511H304.053V201.702H300.862V198.511ZM304.053 198.511H307.245V201.702H304.053V198.511ZM307.245 198.511H310.436V201.702H307.245V198.511ZM310.436 198.511H313.628V201.702H310.436V198.511ZM246.606 201.702H249.798V204.894H246.606V201.702ZM249.798 201.702H252.989V204.894H249.798V201.702ZM252.989 201.702H256.181V204.894H252.989V201.702ZM256.181 201.702H259.372V204.894H256.181V201.702ZM259.372 201.702H262.564V204.894H259.372V201.702ZM262.564 201.702H265.755V204.894H262.564V201.702ZM265.755 201.702H268.947V204.894H265.755V201.702ZM278.521 201.702H281.713V204.894H278.521V201.702ZM284.904 201.702H288.096V204.894H284.904V201.702ZM297.67 201.702H300.862V204.894H297.67V201.702ZM304.053 201.702H307.245V204.894H304.053V201.702ZM313.628 201.702H316.819V204.894H313.628V201.702ZM323.202 201.702H326.394V204.894H323.202V201.702Z" fill="black"/>
<path d="M246.5 125H249.691V128.191H246.5V125ZM249.691 125H252.883V128.191H249.691V125ZM252.883 125H256.074V128.191H252.883V125ZM256.074 125H259.266V128.191H256.074V125ZM259.266 125H262.457V128.191H259.266V125ZM262.457 125H265.649V128.191H262.457V125ZM265.649 125H268.84V128.191H265.649V125ZM281.606 125H284.798V128.191H281.606V125ZM291.181 125H294.372V128.191H291.181V125ZM294.372 125H297.564V128.191H294.372V125ZM297.564 125H300.755V128.191H297.564V125ZM303.947 125H307.138V128.191H303.947V125ZM307.138 125H310.33V128.191H307.138V125ZM310.33 125H313.521V128.191H310.33V125ZM313.521 125H316.713V128.191H313.521V125ZM316.713 125H319.904V128.191H316.713V125ZM319.904 125H323.096V128.191H319.904V125ZM323.096 125H326.287V128.191H323.096V125ZM246.5 128.191H249.691V131.383H246.5V128.191ZM265.649 128.191H268.84V131.383H265.649V128.191ZM275.223 128.191H278.415V131.383H275.223V128.191ZM287.989 128.191H291.181V131.383H287.989V128.191ZM291.181 128.191H294.372V131.383H291.181V128.191ZM297.564 128.191H300.755V131.383H297.564V128.191ZM303.947 128.191H307.138V131.383H303.947V128.191ZM323.096 128.191H326.287V131.383H323.096V128.191ZM246.5 131.383H249.691V134.574H246.5V131.383ZM252.883 131.383H256.074V134.574H252.883V131.383ZM256.074 131.383H259.266V134.574H256.074V131.383ZM259.266 131.383H262.457V134.574H259.266V131.383ZM265.649 131.383H268.84V134.574H265.649V131.383ZM275.223 131.383H278.415V134.574H275.223V131.383ZM278.415 131.383H281.606V134.574H278.415V131.383ZM284.798 131.383H287.989V134.574H284.798V131.383ZM291.181 131.383H294.372V134.574H291.181V131.383ZM294.372 131.383H297.564V134.574H294.372V131.383ZM303.947 131.383H307.138V134.574H303.947V131.383ZM310.33 131.383H313.521V134.574H310.33V131.383ZM313.521 131.383H316.713V134.574H313.521V131.383ZM316.713 131.383H319.904V134.574H316.713V131.383ZM323.096 131.383H326.287V134.574H323.096V131.383ZM246.5 134.574H249.691V137.766H246.5V134.574ZM252.883 134.574H256.074V137.766H252.883V134.574ZM256.074 134.574H259.266V137.766H256.074V134.574ZM259.266 134.574H262.457V137.766H259.266V134.574ZM265.649 134.574H268.84V137.766H265.649V134.574ZM272.032 134.574H275.223V137.766H272.032V134.574ZM275.223 134.574H278.415V137.766H275.223V134.574ZM284.798 134.574H287.989V137.766H284.798V134.574ZM291.181 134.574H294.372V137.766H291.181V134.574ZM294.372 134.574H297.564V137.766H294.372V134.574ZM303.947 134.574H307.138V137.766H303.947V134.574ZM310.33 134.574H313.521V137.766H310.33V134.574ZM313.521 134.574H316.713V137.766H313.521V134.574ZM316.713 134.574H319.904V137.766H316.713V134.574ZM323.096 134.574H326.287V137.766H323.096V134.574ZM246.5 137.766H249.691V140.957H246.5V137.766ZM252.883 137.766H256.074V140.957H252.883V137.766ZM256.074 137.766H259.266V140.957H256.074V137.766ZM259.266 137.766H262.457V140.957H259.266V137.766ZM265.649 137.766H268.84V140.957H265.649V137.766ZM278.415 137.766H281.606V140.957H278.415V137.766ZM281.606 137.766H284.798V140.957H281.606V137.766ZM284.798 137.766H287.989V140.957H284.798V137.766ZM287.989 137.766H291.181V140.957H287.989V137.766ZM291.181 137.766H294.372V140.957H291.181V137.766ZM303.947 137.766H307.138V140.957H303.947V137.766ZM310.33 137.766H313.521V140.957H310.33V137.766ZM313.521 137.766H316.713V140.957H313.521V137.766ZM316.713 137.766H319.904V140.957H316.713V137.766ZM323.096 137.766H326.287V140.957H323.096V137.766ZM246.5 140.957H249.691V144.149H246.5V140.957ZM265.649 140.957H268.84V144.149H265.649V140.957ZM272.032 140.957H275.223V144.149H272.032V140.957ZM281.606 140.957H284.798V144.149H281.606V140.957ZM297.564 140.957H300.755V144.149H297.564V140.957ZM303.947 140.957H307.138V144.149H303.947V140.957ZM323.096 140.957H326.287V144.149H323.096V140.957ZM246.5 144.149H249.691V147.34H246.5V144.149ZM249.691 144.149H252.883V147.34H249.691V144.149ZM252.883 144.149H256.074V147.34H252.883V144.149ZM256.074 144.149H259.266V147.34H256.074V144.149ZM259.266 144.149H262.457V147.34H259.266V144.149ZM262.457 144.149H265.649V147.34H262.457V144.149ZM265.649 144.149H268.84V147.34H265.649V144.149ZM272.032 144.149H275.223V147.34H272.032V144.149ZM278.415 144.149H281.606V147.34H278.415V144.149ZM284.798 144.149H287.989V147.34H284.798V144.149ZM291.181 144.149H294.372V147.34H291.181V144.149ZM297.564 144.149H300.755V147.34H297.564V144.149ZM303.947 144.149H307.138V147.34H303.947V144.149ZM307.138 144.149H310.33V147.34H307.138V144.149ZM310.33 144.149H313.521V147.34H310.33V144.149ZM313.521 144.149H316.713V147.34H313.521V144.149ZM316.713 144.149H319.904V147.34H316.713V144.149ZM319.904 144.149H323.096V147.34H319.904V144.149ZM323.096 144.149H326.287V147.34H323.096V144.149ZM272.032 147.34H275.223V150.532H272.032V147.34ZM275.223 147.34H278.415V150.532H275.223V147.34ZM278.415 147.34H281.606V150.532H278.415V147.34ZM291.181 147.34H294.372V150.532H291.181V147.34ZM294.372 147.34H297.564V150.532H294.372V147.34ZM297.564 147.34H300.755V150.532H297.564V147.34ZM249.691 150.532H252.883V153.723H249.691V150.532ZM252.883 150.532H256.074V153.723H252.883V150.532ZM265.649 150.532H268.84V153.723H265.649V150.532ZM287.989 150.532H291.181V153.723H287.989V150.532ZM291.181 150.532H294.372V153.723H291.181V150.532ZM297.564 150.532H300.755V153.723H297.564V150.532ZM303.947 150.532H307.138V153.723H303.947V150.532ZM307.138 150.532H310.33V153.723H307.138V150.532ZM313.521 150.532H316.713V153.723H313.521V150.532ZM249.691 153.723H252.883V156.915H249.691V153.723ZM252.883 153.723H256.074V156.915H252.883V153.723ZM259.266 153.723H262.457V156.915H259.266V153.723ZM268.84 153.723H272.032V156.915H268.84V153.723ZM278.415 153.723H281.606V156.915H278.415V153.723ZM281.606 153.723H284.798V156.915H281.606V153.723ZM284.798 153.723H287.989V156.915H284.798V153.723ZM287.989 153.723H291.181V156.915H287.989V153.723ZM291.181 153.723H294.372V156.915H291.181V153.723ZM294.372 153.723H297.564V156.915H294.372V153.723ZM297.564 153.723H300.755V156.915H297.564V153.723ZM303.947 153.723H307.138V156.915H303.947V153.723ZM307.138 153.723H310.33V156.915H307.138V153.723ZM313.521 153.723H316.713V156.915H313.521V153.723ZM319.904 153.723H323.096V156.915H319.904V153.723ZM323.096 153.723H326.287V156.915H323.096V153.723ZM265.649 156.915H268.84V160.106H265.649V156.915ZM281.606 156.915H284.798V160.106H281.606V156.915ZM294.372 156.915H297.564V160.106H294.372V156.915ZM300.755 156.915H303.947V160.106H300.755V156.915ZM307.138 156.915H310.33V160.106H307.138V156.915ZM313.521 156.915H316.713V160.106H313.521V156.915ZM316.713 156.915H319.904V160.106H316.713V156.915ZM323.096 156.915H326.287V160.106H323.096V156.915ZM246.5 160.106H249.691V163.298H246.5V160.106ZM249.691 160.106H252.883V163.298H249.691V160.106ZM259.266 160.106H262.457V163.298H259.266V160.106ZM268.84 160.106H272.032V163.298H268.84V160.106ZM275.223 160.106H278.415V163.298H275.223V160.106ZM278.415 160.106H281.606V163.298H278.415V160.106ZM287.989 160.106H291.181V163.298H287.989V160.106ZM294.372 160.106H297.564V163.298H294.372V160.106ZM300.755 160.106H303.947V163.298H300.755V160.106ZM307.138 160.106H310.33V163.298H307.138V160.106ZM313.521 160.106H316.713V163.298H313.521V160.106ZM246.5 163.298H249.691V166.489H246.5V163.298ZM249.691 163.298H252.883V166.489H249.691V163.298ZM256.074 163.298H259.266V166.489H256.074V163.298ZM265.649 163.298H268.84V166.489H265.649V163.298ZM268.84 163.298H272.032V166.489H268.84V163.298ZM272.032 163.298H275.223V166.489H272.032V163.298ZM275.223 163.298H278.415V166.489H275.223V163.298ZM278.415 163.298H281.606V166.489H278.415V163.298ZM287.989 163.298H291.181V166.489H287.989V163.298ZM294.372 163.298H297.564V166.489H294.372V163.298ZM297.564 163.298H300.755V166.489H297.564V163.298ZM303.947 163.298H307.138V166.489H303.947V163.298ZM307.138 163.298H310.33V166.489H307.138V163.298ZM323.096 163.298H326.287V166.489H323.096V163.298ZM252.883 166.489H256.074V169.681H252.883V166.489ZM256.074 166.489H259.266V169.681H256.074V166.489ZM259.266 166.489H262.457V169.681H259.266V166.489ZM278.415 166.489H281.606V169.681H278.415V166.489ZM281.606 166.489H284.798V169.681H281.606V166.489ZM284.798 166.489H287.989V169.681H284.798V166.489ZM294.372 166.489H297.564V169.681H294.372V166.489ZM297.564 166.489H300.755V169.681H297.564V166.489ZM303.947 166.489H307.138V169.681H303.947V166.489ZM307.138 166.489H310.33V169.681H307.138V166.489ZM319.904 166.489H323.096V169.681H319.904V166.489ZM323.096 166.489H326.287V169.681H323.096V166.489ZM246.5 169.681H249.691V172.872H246.5V169.681ZM249.691 169.681H252.883V172.872H249.691V169.681ZM256.074 169.681H259.266V172.872H256.074V169.681ZM262.457 169.681H265.649V172.872H262.457V169.681ZM265.649 169.681H268.84V172.872H265.649V169.681ZM272.032 169.681H275.223V172.872H272.032V169.681ZM275.223 169.681H278.415V172.872H275.223V169.681ZM278.415 169.681H281.606V172.872H278.415V169.681ZM284.798 169.681H287.989V172.872H284.798V169.681ZM294.372 169.681H297.564V172.872H294.372V169.681ZM297.564 169.681H300.755V172.872H297.564V169.681ZM303.947 169.681H307.138V172.872H303.947V169.681ZM313.521 169.681H316.713V172.872H313.521V169.681ZM316.713 169.681H319.904V172.872H316.713V169.681ZM323.096 169.681H326.287V172.872H323.096V169.681ZM252.883 172.872H256.074V176.064H252.883V172.872ZM256.074 172.872H259.266V176.064H256.074V172.872ZM259.266 172.872H262.457V176.064H259.266V172.872ZM268.84 172.872H272.032V176.064H268.84V172.872ZM278.415 172.872H281.606V176.064H278.415V172.872ZM291.181 172.872H294.372V176.064H291.181V172.872ZM294.372 172.872H297.564V176.064H294.372V172.872ZM297.564 172.872H300.755V176.064H297.564V172.872ZM300.755 172.872H303.947V176.064H300.755V172.872ZM303.947 172.872H307.138V176.064H303.947V172.872ZM307.138 172.872H310.33V176.064H307.138V172.872ZM310.33 172.872H313.521V176.064H310.33V172.872ZM313.521 172.872H316.713V176.064H313.521V172.872ZM246.5 176.064H249.691V179.255H246.5V176.064ZM249.691 176.064H252.883V179.255H249.691V176.064ZM252.883 176.064H256.074V179.255H252.883V176.064ZM259.266 176.064H262.457V179.255H259.266V176.064ZM265.649 176.064H268.84V179.255H265.649V176.064ZM272.032 176.064H275.223V179.255H272.032V176.064ZM281.606 176.064H284.798V179.255H281.606V176.064ZM297.564 176.064H300.755V179.255H297.564V176.064ZM300.755 176.064H303.947V179.255H300.755V176.064ZM303.947 176.064H307.138V179.255H303.947V176.064ZM307.138 176.064H310.33V179.255H307.138V176.064ZM310.33 176.064H313.521V179.255H310.33V176.064ZM319.904 176.064H323.096V179.255H319.904V176.064ZM272.032 179.255H275.223V182.447H272.032V179.255ZM275.223 179.255H278.415V182.447H275.223V179.255ZM278.415 179.255H281.606V182.447H278.415V179.255ZM281.606 179.255H284.798V182.447H281.606V179.255ZM287.989 179.255H291.181V182.447H287.989V179.255ZM291.181 179.255H294.372V182.447H291.181V179.255ZM297.564 179.255H300.755V182.447H297.564V179.255ZM310.33 179.255H313.521V182.447H310.33V179.255ZM323.096 179.255H326.287V182.447H323.096V179.255ZM246.5 182.447H249.691V185.638H246.5V182.447ZM249.691 182.447H252.883V185.638H249.691V182.447ZM252.883 182.447H256.074V185.638H252.883V182.447ZM256.074 182.447H259.266V185.638H256.074V182.447ZM259.266 182.447H262.457V185.638H259.266V182.447ZM262.457 182.447H265.649V185.638H262.457V182.447ZM265.649 182.447H268.84V185.638H265.649V182.447ZM278.415 182.447H281.606V185.638H278.415V182.447ZM281.606 182.447H284.798V185.638H281.606V182.447ZM291.181 182.447H294.372V185.638H291.181V182.447ZM297.564 182.447H300.755V185.638H297.564V182.447ZM303.947 182.447H307.138V185.638H303.947V182.447ZM310.33 182.447H313.521V185.638H310.33V182.447ZM323.096 182.447H326.287V185.638H323.096V182.447ZM246.5 185.638H249.691V188.83H246.5V185.638ZM265.649 185.638H268.84V188.83H265.649V185.638ZM275.223 185.638H278.415V188.83H275.223V185.638ZM278.415 185.638H281.606V188.83H278.415V185.638ZM284.798 185.638H287.989V188.83H284.798V185.638ZM287.989 185.638H291.181V188.83H287.989V185.638ZM297.564 185.638H300.755V188.83H297.564V185.638ZM310.33 185.638H313.521V188.83H310.33V185.638ZM319.904 185.638H323.096V188.83H319.904V185.638ZM246.5 188.83H249.691V192.021H246.5V188.83ZM252.883 188.83H256.074V192.021H252.883V188.83ZM256.074 188.83H259.266V192.021H256.074V188.83ZM259.266 188.83H262.457V192.021H259.266V188.83ZM265.649 188.83H268.84V192.021H265.649V188.83ZM275.223 188.83H278.415V192.021H275.223V188.83ZM278.415 188.83H281.606V192.021H278.415V188.83ZM291.181 188.83H294.372V192.021H291.181V188.83ZM294.372 188.83H297.564V192.021H294.372V188.83ZM297.564 188.83H300.755V192.021H297.564V188.83ZM300.755 188.83H303.947V192.021H300.755V188.83ZM303.947 188.83H307.138V192.021H303.947V188.83ZM307.138 188.83H310.33V192.021H307.138V188.83ZM310.33 188.83H313.521V192.021H310.33V188.83ZM319.904 188.83H323.096V192.021H319.904V188.83ZM323.096 188.83H326.287V192.021H323.096V188.83ZM246.5 192.021H249.691V195.213H246.5V192.021ZM252.883 192.021H256.074V195.213H252.883V192.021ZM256.074 192.021H259.266V195.213H256.074V192.021ZM259.266 192.021H262.457V195.213H259.266V192.021ZM265.649 192.021H268.84V195.213H265.649V192.021ZM275.223 192.021H278.415V195.213H275.223V192.021ZM278.415 192.021H281.606V195.213H278.415V192.021ZM281.606 192.021H284.798V195.213H281.606V192.021ZM284.798 192.021H287.989V195.213H284.798V192.021ZM294.372 192.021H297.564V195.213H294.372V192.021ZM300.755 192.021H303.947V195.213H300.755V192.021ZM310.33 192.021H313.521V195.213H310.33V192.021ZM316.713 192.021H319.904V195.213H316.713V192.021ZM319.904 192.021H323.096V195.213H319.904V192.021ZM246.5 195.213H249.691V198.404H246.5V195.213ZM252.883 195.213H256.074V198.404H252.883V195.213ZM256.074 195.213H259.266V198.404H256.074V195.213ZM259.266 195.213H262.457V198.404H259.266V195.213ZM265.649 195.213H268.84V198.404H265.649V195.213ZM272.032 195.213H275.223V198.404H272.032V195.213ZM287.989 195.213H291.181V198.404H287.989V195.213ZM291.181 195.213H294.372V198.404H291.181V195.213ZM294.372 195.213H297.564V198.404H294.372V195.213ZM297.564 195.213H300.755V198.404H297.564V195.213ZM300.755 195.213H303.947V198.404H300.755V195.213ZM307.138 195.213H310.33V198.404H307.138V195.213ZM310.33 195.213H313.521V198.404H310.33V195.213ZM313.521 195.213H316.713V198.404H313.521V195.213ZM319.904 195.213H323.096V198.404H319.904V195.213ZM323.096 195.213H326.287V198.404H323.096V195.213ZM246.5 198.404H249.691V201.596H246.5V198.404ZM265.649 198.404H268.84V201.596H265.649V198.404ZM272.032 198.404H275.223V201.596H272.032V198.404ZM275.223 198.404H278.415V201.596H275.223V198.404ZM278.415 198.404H281.606V201.596H278.415V198.404ZM287.989 198.404H291.181V201.596H287.989V198.404ZM297.564 198.404H300.755V201.596H297.564V198.404ZM300.755 198.404H303.947V201.596H300.755V198.404ZM303.947 198.404H307.138V201.596H303.947V198.404ZM307.138 198.404H310.33V201.596H307.138V198.404ZM310.33 198.404H313.521V201.596H310.33V198.404ZM246.5 201.596H249.691V204.787H246.5V201.596ZM249.691 201.596H252.883V204.787H249.691V201.596ZM252.883 201.596H256.074V204.787H252.883V201.596ZM256.074 201.596H259.266V204.787H256.074V201.596ZM259.266 201.596H262.457V204.787H259.266V201.596ZM262.457 201.596H265.649V204.787H262.457V201.596ZM265.649 201.596H268.84V204.787H265.649V201.596ZM278.415 201.596H281.606V204.787H278.415V201.596ZM284.798 201.596H287.989V204.787H284.798V201.596ZM297.564 201.596H300.755V204.787H297.564V201.596ZM303.947 201.596H307.138V204.787H303.947V201.596ZM313.521 201.596H316.713V204.787H313.521V201.596ZM323.096 201.596H326.287V204.787H323.096V201.596Z" fill="black"/>
<path d="M44.564 62V52.648H45.88V60.866H50.906V62H44.564ZM54.9109 62.168C54.5095 62.168 54.1129 62.098 53.7209 61.958C53.3289 61.818 52.9695 61.6033 52.6429 61.314C52.3255 61.0153 52.0689 60.6373 51.8729 60.18C51.6769 59.7227 51.5789 59.1813 51.5789 58.556C51.5789 57.9307 51.6769 57.3893 51.8729 56.932C52.0689 56.4747 52.3255 56.1013 52.6429 55.812C52.9695 55.5133 53.3289 55.294 53.7209 55.154C54.1129 55.014 54.5095 54.944 54.9109 54.944C55.3122 54.944 55.7089 55.014 56.1009 55.154C56.5022 55.294 56.8615 55.5133 57.1789 55.812C57.5055 56.1013 57.7622 56.4747 57.9489 56.932C58.1449 57.3893 58.2429 57.9307 58.2429 58.556C58.2429 59.1813 58.1449 59.7227 57.9489 60.18C57.7622 60.6373 57.5055 61.0153 57.1789 61.314C56.8615 61.6033 56.5022 61.818 56.1009 61.958C55.7089 62.098 55.3122 62.168 54.9109 62.168ZM54.9109 61.132C55.2469 61.132 55.5735 61.0433 55.8909 60.866C56.2082 60.6793 56.4695 60.3993 56.6749 60.026C56.8802 59.6433 56.9829 59.1533 56.9829 58.556C56.9829 57.9587 56.8802 57.4733 56.6749 57.1C56.4695 56.7173 56.2082 56.4373 55.8909 56.26C55.5735 56.0733 55.2469 55.98 54.9109 55.98C54.5842 55.98 54.2575 56.0733 53.9309 56.26C53.6135 56.4373 53.3522 56.7173 53.1469 57.1C52.9415 57.4733 52.8389 57.9587 52.8389 58.556C52.8389 59.1533 52.9415 59.6433 53.1469 60.026C53.3522 60.3993 53.6135 60.6793 53.9309 60.866C54.2575 61.0433 54.5842 61.132 54.9109 61.132ZM62.5375 62.168C61.8748 62.168 61.3008 62.014 60.8155 61.706C60.3302 61.3887 59.9568 60.9593 59.6955 60.418C59.4342 59.8767 59.3035 59.256 59.3035 58.556C59.3035 57.8653 59.4388 57.2493 59.7095 56.708C59.9895 56.1573 60.3815 55.728 60.8855 55.42C61.3895 55.1027 61.9822 54.944 62.6635 54.944C63.2888 54.944 63.8255 55.098 64.2735 55.406C64.7215 55.714 65.0575 56.0827 65.2815 56.512L64.2035 56.904C64.0542 56.624 63.8348 56.4 63.5455 56.232C63.2562 56.064 62.9342 55.98 62.5795 55.98C62.2342 55.98 61.9075 56.0733 61.5995 56.26C61.2915 56.4373 61.0442 56.7173 60.8575 57.1C60.6708 57.4733 60.5775 57.954 60.5775 58.542C60.5775 59.1207 60.6708 59.606 60.8575 59.998C61.0535 60.3807 61.3008 60.6653 61.5995 60.852C61.9075 61.0387 62.2342 61.132 62.5795 61.132C62.9622 61.132 63.2935 61.048 63.5735 60.88C63.8628 60.7027 64.0822 60.4833 64.2315 60.222L65.3095 60.614C65.0482 61.062 64.6748 61.4353 64.1895 61.734C63.7042 62.0233 63.1535 62.168 62.5375 62.168ZM68.6975 62.168C68.2588 62.168 67.8575 62.0887 67.4935 61.93C67.1295 61.7713 66.8402 61.5427 66.6255 61.244C66.4108 60.9453 66.3035 60.586 66.3035 60.166C66.3035 59.6153 66.4948 59.1813 66.8775 58.864C67.2695 58.5467 67.8155 58.304 68.5155 58.136C69.2248 57.9587 70.0508 57.8187 70.9935 57.716C71.0122 57.128 70.8955 56.6753 70.6435 56.358C70.3915 56.0407 69.9855 55.882 69.4255 55.882C69.0055 55.882 68.6602 55.98 68.3895 56.176C68.1282 56.3627 67.9602 56.624 67.8855 56.96L66.7515 56.624C66.9382 56.092 67.2695 55.6813 67.7455 55.392C68.2308 55.0933 68.7862 54.944 69.4115 54.944C70.3728 54.944 71.0728 55.1727 71.5115 55.63C71.9595 56.078 72.1835 56.7873 72.1835 57.758V59.382C72.1835 59.9607 72.2068 60.46 72.2535 60.88C72.3002 61.3 72.3562 61.6733 72.4215 62H71.3435L71.0635 61.048C70.8582 61.3933 70.5642 61.6687 70.1815 61.874C69.7988 62.07 69.3042 62.168 68.6975 62.168ZM68.9495 61.23C69.3135 61.23 69.6588 61.1647 69.9855 61.034C70.3122 60.9033 70.5782 60.684 70.7835 60.376C70.9888 60.0587 71.0915 59.6293 71.0915 59.088V58.654C70.3822 58.7287 69.7662 58.822 69.2435 58.934C68.7208 59.0367 68.3148 59.186 68.0255 59.382C67.7455 59.5687 67.6055 59.8207 67.6055 60.138C67.6055 60.4647 67.7222 60.7307 67.9555 60.936C68.1982 61.132 68.5295 61.23 68.9495 61.23ZM76.2346 62C75.796 62 75.4553 61.958 75.2126 61.874C74.9793 61.7807 74.816 61.608 74.7226 61.356C74.6386 61.104 74.5966 60.74 74.5966 60.264V55.994H73.4206V55.056H74.5966V53.306H75.7726V55.056H77.1166V55.994H75.7726V60.068C75.7726 60.4227 75.8053 60.6607 75.8706 60.782C75.9453 60.9033 76.1506 60.964 76.4866 60.964H77.1166V62H76.2346ZM79.8637 53.74C79.6304 53.74 79.425 53.656 79.2477 53.488C79.0797 53.3107 78.9957 53.1007 78.9957 52.858C78.9957 52.6153 79.0797 52.41 79.2477 52.242C79.425 52.074 79.6304 51.99 79.8637 51.99C80.1064 51.99 80.3117 52.074 80.4797 52.242C80.657 52.41 80.7457 52.6153 80.7457 52.858C80.7457 53.1007 80.657 53.3107 80.4797 53.488C80.3117 53.656 80.1064 53.74 79.8637 53.74ZM79.2757 62V55.994H78.3097V55.056H80.4517V62H79.2757ZM85.4402 62.168C85.0388 62.168 84.6422 62.098 84.2502 61.958C83.8582 61.818 83.4988 61.6033 83.1722 61.314C82.8548 61.0153 82.5982 60.6373 82.4022 60.18C82.2062 59.7227 82.1082 59.1813 82.1082 58.556C82.1082 57.9307 82.2062 57.3893 82.4022 56.932C82.5982 56.4747 82.8548 56.1013 83.1722 55.812C83.4988 55.5133 83.8582 55.294 84.2502 55.154C84.6422 55.014 85.0388 54.944 85.4402 54.944C85.8415 54.944 86.2382 55.014 86.6302 55.154C87.0315 55.294 87.3908 55.5133 87.7082 55.812C88.0348 56.1013 88.2915 56.4747 88.4782 56.932C88.6742 57.3893 88.7722 57.9307 88.7722 58.556C88.7722 59.1813 88.6742 59.7227 88.4782 60.18C88.2915 60.6373 88.0348 61.0153 87.7082 61.314C87.3908 61.6033 87.0315 61.818 86.6302 61.958C86.2382 62.098 85.8415 62.168 85.4402 62.168ZM85.4402 61.132C85.7762 61.132 86.1028 61.0433 86.4202 60.866C86.7375 60.6793 86.9988 60.3993 87.2042 60.026C87.4095 59.6433 87.5122 59.1533 87.5122 58.556C87.5122 57.9587 87.4095 57.4733 87.2042 57.1C86.9988 56.7173 86.7375 56.4373 86.4202 56.26C86.1028 56.0733 85.7762 55.98 85.4402 55.98C85.1135 55.98 84.7868 56.0733 84.4602 56.26C84.1428 56.4373 83.8815 56.7173 83.6762 57.1C83.4708 57.4733 83.3682 57.9587 83.3682 58.556C83.3682 59.1533 83.4708 59.6433 83.6762 60.026C83.8815 60.3993 84.1428 60.6793 84.4602 60.866C84.7868 61.0433 85.1135 61.132 85.4402 61.132ZM90.2808 62V55.056H91.1488L91.4568 56.106C91.6528 55.7793 91.9281 55.504 92.2828 55.28C92.6374 55.056 93.1088 54.944 93.6968 54.944C94.5368 54.944 95.1294 55.1913 95.4748 55.686C95.8201 56.1713 95.9928 56.8107 95.9928 57.604V62H94.8168V57.954C94.8168 57.5993 94.7841 57.2727 94.7188 56.974C94.6534 56.666 94.5088 56.4187 94.2848 56.232C94.0701 56.0453 93.7388 55.952 93.2908 55.952C92.7214 55.952 92.2734 56.148 91.9468 56.54C91.6201 56.9227 91.4568 57.4873 91.4568 58.234V62H90.2808Z" fill="white"/>
<path d="M49.428 44.168C48.5133 44.168 47.7247 43.972 47.062 43.58C46.3993 43.1787 45.886 42.614 45.522 41.886C45.1673 41.1487 44.99 40.2853 44.99 39.296C44.99 38.3067 45.1907 37.4527 45.592 36.734C45.9933 36.0153 46.5487 35.46 47.258 35.068C47.9767 34.676 48.8073 34.48 49.75 34.48C50.5713 34.48 51.3087 34.6433 51.962 34.97C52.6247 35.2967 53.1427 35.7773 53.516 36.412L51.612 37.196C51.4627 36.9533 51.2293 36.7433 50.912 36.566C50.604 36.3887 50.2073 36.3 49.722 36.3C49.2833 36.3 48.882 36.412 48.518 36.636C48.154 36.86 47.8647 37.196 47.65 37.644C47.4353 38.0827 47.328 38.6333 47.328 39.296C47.328 40.276 47.552 41.032 48 41.564C48.448 42.0867 49.036 42.348 49.764 42.348C50.1093 42.348 50.4407 42.3013 50.758 42.208C51.0753 42.1053 51.3367 41.9373 51.542 41.704C51.7473 41.4707 51.85 41.158 51.85 40.766V40.5H49.75V38.708H54.062V44H52.606L52.298 42.964C51.7007 43.7667 50.744 44.168 49.428 44.168ZM57.2925 35.908C56.9472 35.908 56.6485 35.7867 56.3965 35.544C56.1538 35.292 56.0325 34.9933 56.0325 34.648C56.0325 34.2933 56.1538 33.9947 56.3965 33.752C56.6485 33.5093 56.9472 33.388 57.2925 33.388C57.6472 33.388 57.9458 33.5093 58.1885 33.752C58.4312 33.9947 58.5525 34.2933 58.5525 34.648C58.5525 34.9933 58.4312 35.292 58.1885 35.544C57.9458 35.7867 57.6472 35.908 57.2925 35.908ZM56.2145 44V38.68H54.8985V37.056H58.3565V44H56.2145ZM60.1965 44V38.68H59.0485V37.056H60.1965V35.922C60.1965 35.3713 60.2898 34.942 60.4765 34.634C60.6632 34.326 60.9525 34.1113 61.3445 33.99C61.7365 33.8687 62.2452 33.808 62.8705 33.808H63.8365V35.488H63.2485C62.8752 35.488 62.6278 35.5253 62.5065 35.6C62.3852 35.6747 62.3245 35.8473 62.3245 36.118V37.056H63.8365V38.68H62.3245V44H60.1965ZM67.9092 44C67.3399 44 66.8872 43.9533 66.5512 43.86C66.2152 43.7573 65.9725 43.566 65.8232 43.286C65.6832 42.9967 65.6132 42.5813 65.6132 42.04V38.68H64.4652V37.056H65.6132V35.32H67.7412V37.056H69.2532V38.68H67.7412V41.48C67.7412 41.8067 67.8019 42.0213 67.9232 42.124C68.0539 42.2173 68.2919 42.264 68.6372 42.264H69.2532V44H67.9092ZM77.9643 44.168C77.1989 44.168 76.5503 44.014 76.0183 43.706C75.4956 43.398 75.0943 42.9687 74.8143 42.418C74.5436 41.858 74.4083 41.214 74.4083 40.486C74.4083 39.758 74.5576 39.1233 74.8563 38.582C75.1549 38.0313 75.5703 37.6067 76.1023 37.308C76.6436 37.0093 77.2643 36.86 77.9643 36.86C78.3656 36.86 78.7623 36.916 79.1543 37.028C79.5556 37.14 79.9243 37.3313 80.2603 37.602C80.6056 37.8633 80.8856 38.2227 81.1003 38.68L79.3223 39.324C79.2103 39.0253 79.0423 38.8153 78.8183 38.694C78.6036 38.5727 78.3609 38.512 78.0903 38.512C77.8383 38.512 77.5956 38.5773 77.3623 38.708C77.1289 38.8293 76.9376 39.0347 76.7883 39.324C76.6483 39.6133 76.5783 40.0053 76.5783 40.5C76.5783 41.004 76.6529 41.4053 76.8023 41.704C76.9516 41.9933 77.1383 42.2033 77.3623 42.334C77.5956 42.4553 77.8383 42.516 78.0903 42.516C78.3889 42.516 78.6409 42.46 78.8463 42.348C79.0516 42.2267 79.2149 42.0633 79.3363 41.858L81.0723 42.488C80.8389 42.908 80.5496 43.244 80.2043 43.496C79.8589 43.7387 79.4903 43.9113 79.0983 44.014C78.7156 44.1167 78.3376 44.168 77.9643 44.168ZM84.0757 44.168C83.637 44.168 83.2357 44.084 82.8717 43.916C82.5077 43.748 82.2184 43.5147 82.0037 43.216C81.789 42.908 81.6817 42.544 81.6817 42.124C81.6817 41.5547 81.8777 41.102 82.2697 40.766C82.671 40.43 83.217 40.178 83.9077 40.01C84.5984 39.842 85.3917 39.7253 86.2877 39.66C86.2877 39.1653 86.2084 38.8153 86.0497 38.61C85.891 38.4047 85.583 38.302 85.1257 38.302C84.8364 38.302 84.5797 38.372 84.3557 38.512C84.141 38.6427 83.9964 38.848 83.9217 39.128L82.1297 38.484C82.363 38.0173 82.7504 37.63 83.2917 37.322C83.8424 37.014 84.5144 36.86 85.3077 36.86C86.297 36.86 87.0577 37.0793 87.5897 37.518C88.1217 37.9567 88.3877 38.7033 88.3877 39.758V41.284C88.3877 41.5827 88.397 41.9047 88.4157 42.25C88.4344 42.5953 88.4624 42.922 88.4997 43.23C88.537 43.538 88.579 43.7947 88.6257 44H86.6517L86.3997 43.16C86.1384 43.524 85.807 43.7853 85.4057 43.944C85.0137 44.0933 84.5704 44.168 84.0757 44.168ZM84.8597 42.712C85.2797 42.712 85.6297 42.6 85.9097 42.376C86.1897 42.152 86.3297 41.7227 86.3297 41.088V40.92C85.5924 40.9853 84.9997 41.088 84.5517 41.228C84.1037 41.3587 83.8797 41.606 83.8797 41.97C83.8797 42.194 83.973 42.376 84.1597 42.516C84.3464 42.6467 84.5797 42.712 84.8597 42.712ZM89.784 44V37.056H91.464L91.842 38.33C92.0567 37.77 92.3507 37.378 92.724 37.154C93.0973 36.93 93.55 36.832 94.082 36.86V38.988C93.97 38.9693 93.872 38.96 93.788 38.96C93.704 38.9507 93.6107 38.946 93.508 38.946C92.9947 38.946 92.598 39.0673 92.318 39.31C92.0473 39.5527 91.912 39.9493 91.912 40.5V44H89.784ZM97.695 44.168C97.0976 44.168 96.5656 44.0187 96.099 43.72C95.6416 43.4213 95.2823 42.9967 95.021 42.446C94.7596 41.886 94.629 41.228 94.629 40.472C94.629 39.716 94.7596 39.072 95.021 38.54C95.2823 37.9987 95.6416 37.5833 96.099 37.294C96.5656 37.0047 97.0976 36.86 97.695 36.86C98.0776 36.86 98.4696 36.958 98.871 37.154C99.2723 37.3407 99.585 37.6253 99.809 38.008V34.648H101.937V41.284C101.937 41.6293 101.951 42.04 101.979 42.516C102.016 42.992 102.082 43.4867 102.175 44H100.145L99.865 43.062C99.5756 43.4633 99.235 43.748 98.843 43.916C98.4603 44.084 98.0776 44.168 97.695 44.168ZM98.381 42.516C98.7916 42.516 99.1463 42.362 99.445 42.054C99.753 41.746 99.907 41.2327 99.907 40.514C99.907 39.8047 99.753 39.296 99.445 38.988C99.1463 38.6707 98.7916 38.512 98.381 38.512C97.961 38.512 97.597 38.68 97.289 39.016C96.9903 39.352 96.841 39.8373 96.841 40.472C96.841 41.116 96.9903 41.62 97.289 41.984C97.597 42.3387 97.961 42.516 98.381 42.516Z" fill="white"/>
<path d="M249.424 62V60.964H250.74V53.684H249.424V52.648H253.372V53.684H252.056V60.964H253.372V62H249.424ZM255.361 62V52.648H257.909C258.656 52.648 259.337 52.7273 259.953 52.886C260.578 53.0353 261.12 53.2873 261.577 53.642C262.034 53.9967 262.389 54.4773 262.641 55.084C262.893 55.6813 263.019 56.4233 263.019 57.31C263.019 58.206 262.893 58.9573 262.641 59.564C262.389 60.1613 262.034 60.642 261.577 61.006C261.12 61.3607 260.578 61.6173 259.953 61.776C259.337 61.9253 258.656 62 257.909 62H255.361ZM256.677 60.894H257.881C258.366 60.894 258.833 60.8567 259.281 60.782C259.738 60.698 260.144 60.5393 260.499 60.306C260.863 60.0633 261.148 59.704 261.353 59.228C261.568 58.7427 261.675 58.1033 261.675 57.31C261.675 56.5167 261.568 55.8867 261.353 55.42C261.148 54.944 260.863 54.5893 260.499 54.356C260.144 54.1133 259.738 53.9547 259.281 53.88C258.833 53.796 258.366 53.754 257.881 53.754H256.677V60.894ZM265.145 56.75C264.902 56.75 264.692 56.6613 264.515 56.484C264.337 56.3067 264.249 56.092 264.249 55.84C264.249 55.5973 264.337 55.3873 264.515 55.21C264.692 55.0327 264.902 54.944 265.145 54.944C265.397 54.944 265.611 55.0327 265.789 55.21C265.966 55.3873 266.055 55.5973 266.055 55.84C266.055 56.092 265.966 56.3067 265.789 56.484C265.611 56.6613 265.397 56.75 265.145 56.75ZM265.145 62.168C264.902 62.168 264.692 62.0793 264.515 61.902C264.337 61.7247 264.249 61.5147 264.249 61.272C264.249 61.02 264.337 60.8053 264.515 60.628C264.692 60.4507 264.902 60.362 265.145 60.362C265.397 60.362 265.611 60.4507 265.789 60.628C265.966 60.8053 266.055 61.02 266.055 61.272C266.055 61.5147 265.966 61.7247 265.789 61.902C265.611 62.0793 265.397 62.168 265.145 62.168ZM273.592 62V54.944H271.1V54.006C271.548 54.006 271.963 53.9733 272.346 53.908C272.738 53.8427 273.074 53.712 273.354 53.516C273.643 53.32 273.853 53.0307 273.984 52.648H274.768V62H273.592ZM276.621 62V60.95C277.722 60.138 278.66 59.3913 279.435 58.71C280.219 58.0287 280.816 57.394 281.227 56.806C281.647 56.2087 281.857 55.6347 281.857 55.084C281.857 54.5987 281.703 54.2067 281.395 53.908C281.087 53.6093 280.657 53.46 280.107 53.46C279.668 53.46 279.257 53.5813 278.875 53.824C278.501 54.0573 278.259 54.4587 278.147 55.028L276.971 54.692C277.139 54.0107 277.503 53.474 278.063 53.082C278.623 52.6807 279.313 52.48 280.135 52.48C280.713 52.48 281.222 52.578 281.661 52.774C282.109 52.9607 282.459 53.236 282.711 53.6C282.972 53.964 283.103 54.4073 283.103 54.93C283.103 55.4713 282.972 56.0033 282.711 56.526C282.449 57.0393 282.09 57.5433 281.633 58.038C281.175 58.5233 280.653 59.0087 280.065 59.494C279.477 59.97 278.856 60.446 278.203 60.922H283.355V62H276.621ZM287.636 62.168C287.011 62.168 286.474 62.0653 286.026 61.86C285.587 61.6547 285.237 61.3793 284.976 61.034C284.715 60.6887 284.528 60.306 284.416 59.886L285.578 59.55C285.681 60.0353 285.9 60.432 286.236 60.74C286.581 61.0387 287.053 61.188 287.65 61.188C288.266 61.188 288.77 61.034 289.162 60.726C289.563 60.4087 289.764 59.9607 289.764 59.382C289.764 59.0273 289.689 58.738 289.54 58.514C289.391 58.2807 289.199 58.1033 288.966 57.982C288.733 57.8607 288.481 57.772 288.21 57.716C287.949 57.66 287.697 57.6273 287.454 57.618C287.221 57.6087 287.029 57.604 286.88 57.604V56.54C287.141 56.54 287.421 56.526 287.72 56.498C288.028 56.47 288.317 56.4093 288.588 56.316C288.868 56.2133 289.092 56.0593 289.26 55.854C289.437 55.6393 289.526 55.35 289.526 54.986C289.526 54.482 289.344 54.104 288.98 53.852C288.625 53.5907 288.201 53.46 287.706 53.46C287.137 53.46 286.684 53.6047 286.348 53.894C286.012 54.1833 285.797 54.5613 285.704 55.028L284.556 54.692C284.724 54.0293 285.079 53.4973 285.62 53.096C286.171 52.6853 286.875 52.48 287.734 52.48C288.275 52.48 288.775 52.5593 289.232 52.718C289.689 52.8673 290.058 53.1193 290.338 53.474C290.618 53.8193 290.758 54.2813 290.758 54.86C290.758 55.336 290.627 55.7653 290.366 56.148C290.105 56.5307 289.727 56.8247 289.232 57.03C289.932 57.2447 290.403 57.5667 290.646 57.996C290.898 58.416 291.024 58.8733 291.024 59.368C291.024 59.9933 290.865 60.516 290.548 60.936C290.231 61.3467 289.815 61.6547 289.302 61.86C288.789 62.0653 288.233 62.168 287.636 62.168ZM297.047 62V59.69H292.399V58.584L297.033 52.648H298.223V58.584H299.931V59.69H298.223V62H297.047ZM293.673 58.584H297.047V54.258L293.673 58.584ZM304.183 62.168C303.558 62.168 303.026 62.0653 302.587 61.86C302.148 61.6547 301.798 61.3793 301.537 61.034C301.276 60.6887 301.084 60.306 300.963 59.886L302.111 59.55C302.223 60.0633 302.442 60.4647 302.769 60.754C303.105 61.0433 303.576 61.188 304.183 61.188C304.556 61.188 304.902 61.0993 305.219 60.922C305.536 60.7447 305.788 60.488 305.975 60.152C306.171 59.816 306.269 59.41 306.269 58.934C306.269 58.4113 306.162 57.9867 305.947 57.66C305.742 57.3333 305.476 57.0953 305.149 56.946C304.832 56.7873 304.505 56.708 304.169 56.708C303.684 56.708 303.287 56.8247 302.979 57.058C302.671 57.282 302.466 57.5107 302.363 57.744L301.215 57.408L301.789 52.648H307.151V53.782H302.741L302.419 56.4C302.662 56.1573 302.96 55.98 303.315 55.868C303.679 55.756 304.052 55.7 304.435 55.7C304.986 55.7 305.49 55.826 305.947 56.078C306.414 56.33 306.787 56.694 307.067 57.17C307.356 57.646 307.501 58.2293 307.501 58.92C307.501 59.6293 307.342 60.2267 307.025 60.712C306.717 61.1973 306.311 61.5613 305.807 61.804C305.303 62.0467 304.762 62.168 304.183 62.168ZM312.611 62.168C311.444 62.168 310.586 61.776 310.035 60.992C309.484 60.208 309.209 59.0973 309.209 57.66C309.209 56.9973 309.27 56.358 309.391 55.742C309.522 55.126 309.727 54.5753 310.007 54.09C310.296 53.5953 310.674 53.2033 311.141 52.914C311.608 52.6247 312.182 52.48 312.863 52.48C313.554 52.48 314.114 52.6247 314.543 52.914C314.972 53.2033 315.29 53.558 315.495 53.978L314.305 54.328C314.165 54.0573 313.96 53.8473 313.689 53.698C313.418 53.5393 313.096 53.46 312.723 53.46C311.995 53.46 311.435 53.7913 311.043 54.454C310.66 55.1167 310.455 55.9893 310.427 57.072C310.642 56.708 310.95 56.4 311.351 56.148C311.752 55.896 312.266 55.77 312.891 55.77C313.47 55.77 313.983 55.9053 314.431 56.176C314.888 56.4467 315.248 56.82 315.509 57.296C315.77 57.772 315.901 58.3227 315.901 58.948C315.901 59.5267 315.766 60.0633 315.495 60.558C315.224 61.0433 314.842 61.4353 314.347 61.734C313.862 62.0233 313.283 62.168 312.611 62.168ZM312.611 61.174C313.227 61.174 313.717 60.9733 314.081 60.572C314.454 60.1613 314.641 59.634 314.641 58.99C314.641 58.346 314.454 57.8233 314.081 57.422C313.717 57.0113 313.227 56.806 312.611 56.806C311.986 56.806 311.486 57.0113 311.113 57.422C310.749 57.8233 310.567 58.346 310.567 58.99C310.567 59.634 310.749 60.1613 311.113 60.572C311.486 60.9733 311.986 61.174 312.611 61.174ZM318.038 62L322.098 53.782H316.946V52.648H323.4V53.782L319.508 62H318.038ZM327.515 62.168C326.871 62.168 326.287 62.0607 325.765 61.846C325.242 61.622 324.827 61.3047 324.519 60.894C324.211 60.474 324.057 59.9653 324.057 59.368C324.057 58.7613 324.215 58.248 324.533 57.828C324.85 57.3987 325.265 57.0813 325.779 56.876C325.536 56.6427 325.34 56.3673 325.191 56.05C325.051 55.7327 324.981 55.3873 324.981 55.014C324.981 54.5473 325.093 54.1227 325.317 53.74C325.55 53.3573 325.858 53.054 326.241 52.83C326.623 52.5967 327.048 52.48 327.515 52.48C327.991 52.48 328.42 52.5967 328.803 52.83C329.185 53.054 329.489 53.3573 329.713 53.74C329.946 54.1227 330.063 54.5473 330.063 55.014C330.063 55.3873 329.988 55.7327 329.839 56.05C329.699 56.3673 329.507 56.6427 329.265 56.876C329.787 57.0813 330.203 57.3987 330.511 57.828C330.828 58.248 330.987 58.7613 330.987 59.368C330.987 59.9653 330.833 60.474 330.525 60.894C330.217 61.3047 329.801 61.622 329.279 61.846C328.756 62.0607 328.168 62.168 327.515 62.168ZM327.515 56.526C327.925 56.526 328.275 56.3813 328.565 56.092C328.863 55.7933 329.013 55.4293 329.013 55C329.013 54.5893 328.863 54.2393 328.565 53.95C328.275 53.6607 327.925 53.516 327.515 53.516C327.104 53.516 326.749 53.6607 326.451 53.95C326.161 54.2393 326.017 54.5893 326.017 55C326.017 55.4293 326.161 55.7933 326.451 56.092C326.749 56.3813 327.104 56.526 327.515 56.526ZM327.515 61.132C328.187 61.132 328.719 60.9733 329.111 60.656C329.512 60.3387 329.713 59.9093 329.713 59.368C329.713 58.8173 329.512 58.3787 329.111 58.052C328.719 57.7253 328.187 57.562 327.515 57.562C326.852 57.562 326.32 57.7253 325.919 58.052C325.527 58.3787 325.331 58.8173 325.331 59.368C325.331 59.9093 325.527 60.3387 325.919 60.656C326.32 60.9733 326.852 61.132 327.515 61.132Z" fill="white"/>
</g>
<defs>
<clipPath id="clip0_13489_18991">
<rect x="27.5" y="16" width="320" height="210" rx="11.3217" fill="white"/>
</clipPath>
</defs>
</svg>
