<svg width="19" height="20" viewBox="0 0 19 20" fill="none" xmlns="http://www.w3.org/2000/svg">
<path d="M14.3833 1.51611L10.7925 6.93089H12.5879L16.1788 1.51611H14.3833Z" fill="#428BC1"/>
<path d="M12.5876 1.51611L8.96826 6.93089H10.7922L14.383 1.51611H12.5876Z" fill="#E8E8E8"/>
<path d="M10.7922 1.51611L7.17285 6.93089H8.96828L12.5876 1.51611H10.7922Z" fill="#ED4C5C"/>
<path d="M6.57374 5.73413C6.40275 5.73413 6.26025 5.87663 6.26025 6.04762V8.75501C6.26025 8.926 6.40275 9.0685 6.57374 9.0685H13.1855C13.3565 9.0685 13.499 8.926 13.499 8.75501V6.04762C13.499 5.87663 13.3565 5.73413 13.1855 5.73413H6.57374ZM12.872 7.81455C12.872 7.98554 12.7295 8.12803 12.5585 8.12803H7.14372C6.97273 8.12803 6.83023 7.98554 6.83023 7.81455V6.6176C6.83023 6.4466 6.97273 6.30411 7.14372 6.30411H12.5585C12.7295 6.30411 12.872 6.4466 12.872 6.6176V7.81455Z" fill="#FFC200"/>
<path d="M7.1724 6.93089H8.96782L5.37697 1.51611H3.58154L7.1724 6.93089Z" fill="#ED4C5C"/>
<path d="M8.96829 6.93089H10.7922L7.17287 1.51611H5.37744L8.96829 6.93089Z" fill="#E8E8E8"/>
<path opacity="0.5" d="M10.1937 2.42822L9.28174 3.76767L11.3907 6.93104H12.5876L12.8726 6.47506L10.1937 2.42822Z" fill="#3E4347"/>
<path d="M10.7922 6.93089H12.5876L8.96828 1.51611H7.17285L10.7922 6.93089Z" fill="#428BC1"/>
<path d="M9.87941 18.6155C12.9801 18.6155 15.4937 16.1019 15.4937 13.0012C15.4937 9.90056 12.9801 7.38696 9.87941 7.38696C6.77873 7.38696 4.26514 9.90056 4.26514 13.0012C4.26514 16.1019 6.77873 18.6155 9.87941 18.6155Z" fill="#FFC200"/>
<path d="M9.96609 7.8999C7.0877 7.8999 4.7793 10.2368 4.7793 13.0867C4.7793 13.9417 4.97879 14.7396 5.34927 15.4521C5.17828 14.8821 5.06429 14.2836 5.06429 13.6567C5.06429 10.6073 7.40119 8.12789 10.3936 7.8999H9.96609Z" fill="#E68A00"/>
<path d="M13.8699 9.78101C15.3234 12.3459 14.5824 15.6518 12.046 17.3332C11.533 17.6752 10.963 17.9317 10.3931 18.1027C11.191 18.0172 11.9605 17.7322 12.673 17.2477C15.0669 15.6518 15.6939 12.4599 14.1264 10.123L13.8699 9.78101Z" fill="#FFE394"/>
<path d="M9.88022 10.7214V8.89746L8.96826 11.7473L9.36725 12.2603L9.88022 10.7214Z" fill="#F2B200"/>
<path d="M10.3929 12.2603L10.7918 11.7473L9.87988 8.89746V10.7214L10.3929 12.2603Z" fill="#E68A00"/>
<path d="M10.6782 13.2008L11.3622 13.5142L13.7846 11.7473L11.9892 12.2603L10.6782 13.2008Z" fill="#C47500"/>
<path d="M11.989 12.2603L13.7844 11.7473H10.7921L10.3931 12.2603H11.989Z" fill="#FFE394"/>
<path d="M9.36646 12.2603L8.96748 11.7473H5.9751L7.77052 12.2603H9.36646Z" fill="#FFD252"/>
<path d="M7.77052 12.2603L5.9751 11.7473L8.369 13.5142L9.08147 13.2008L7.77052 12.2603Z" fill="#FFDB75"/>
<path d="M10.6782 13.2007L11.1912 14.7396L12.3027 16.3641L11.3622 13.5142L10.6782 13.2007Z" fill="#E68A00"/>
<path d="M9.88041 13.7992V14.5971L12.3028 16.3641L11.1914 14.7396L9.88041 13.7992ZM9.08244 13.2007L8.36997 13.5142L7.45801 16.3641L8.56946 14.7396L9.08244 13.2007Z" fill="#F2B200"/>
<path d="M8.56946 14.7398L7.45801 16.3642L9.88041 14.5973V13.7993L8.56946 14.7398Z" fill="#E68A00"/>
<path d="M10.3934 12.2604L9.8804 10.7214L9.36742 12.2604H7.77148L9.08243 13.2008L8.56945 14.7398L9.8804 13.7993L11.1913 14.7398L10.6784 13.2008L11.9893 12.2604H10.3934Z" fill="#FFCE31"/>
</svg>
