<svg width="315" height="48" viewBox="0 0 315 48" fill="none" xmlns="http://www.w3.org/2000/svg">
<rect width="315" height="48" rx="24" fill="#21034F"/>
<path d="M149.556 24.748C149.95 24.748 150.294 24.7 150.588 24.604C150.881 24.5027 151.124 24.3613 151.316 24.18C151.513 23.9933 151.66 23.7693 151.756 23.508C151.852 23.2413 151.9 22.9453 151.9 22.62C151.9 22.3107 151.852 22.0307 151.756 21.78C151.66 21.5293 151.516 21.316 151.324 21.14C151.132 20.964 150.889 20.8307 150.596 20.74C150.302 20.644 149.956 20.596 149.556 20.596H147.948V24.748H149.556ZM149.556 18.932C150.329 18.932 150.998 19.0227 151.564 19.204C152.129 19.3853 152.596 19.6387 152.964 19.964C153.332 20.2893 153.604 20.6787 153.78 21.132C153.961 21.5853 154.052 22.0813 154.052 22.62C154.052 23.18 153.958 23.6947 153.772 24.164C153.585 24.628 153.305 25.028 152.932 25.364C152.558 25.7 152.089 25.9613 151.524 26.148C150.964 26.3347 150.308 26.428 149.556 26.428H147.948V30.5H145.796V18.932H149.556ZM159.476 26.996C158.905 27.0227 158.425 27.0733 158.036 27.148C157.647 27.2173 157.335 27.308 157.1 27.42C156.865 27.532 156.697 27.6627 156.596 27.812C156.495 27.9613 156.444 28.124 156.444 28.3C156.444 28.6467 156.545 28.8947 156.748 29.044C156.956 29.1933 157.225 29.268 157.556 29.268C157.961 29.268 158.311 29.196 158.604 29.052C158.903 28.9027 159.193 28.6787 159.476 28.38V26.996ZM154.948 23.436C155.892 22.572 157.028 22.14 158.356 22.14C158.836 22.14 159.265 22.22 159.644 22.38C160.023 22.5347 160.343 22.7533 160.604 23.036C160.865 23.3133 161.063 23.6467 161.196 24.036C161.335 24.4253 161.404 24.852 161.404 25.316V30.5H160.508C160.321 30.5 160.177 30.4733 160.076 30.42C159.975 30.3613 159.895 30.2467 159.836 30.076L159.66 29.484C159.452 29.6707 159.249 29.836 159.052 29.98C158.855 30.1187 158.649 30.236 158.436 30.332C158.223 30.428 157.993 30.5 157.748 30.548C157.508 30.6013 157.241 30.628 156.948 30.628C156.601 30.628 156.281 30.5827 155.988 30.492C155.695 30.396 155.441 30.2547 155.228 30.068C155.015 29.8813 154.849 29.6493 154.732 29.372C154.615 29.0947 154.556 28.772 154.556 28.404C154.556 28.196 154.591 27.9907 154.66 27.788C154.729 27.58 154.841 27.3827 154.996 27.196C155.156 27.0093 155.361 26.8333 155.612 26.668C155.863 26.5027 156.169 26.3587 156.532 26.236C156.9 26.1133 157.327 26.0147 157.812 25.94C158.297 25.86 158.852 25.812 159.476 25.796V25.316C159.476 24.7667 159.359 24.3613 159.124 24.1C158.889 23.8333 158.551 23.7 158.108 23.7C157.788 23.7 157.521 23.7373 157.308 23.812C157.1 23.8867 156.916 23.972 156.756 24.068C156.596 24.1587 156.449 24.2413 156.316 24.316C156.188 24.3907 156.044 24.428 155.884 24.428C155.745 24.428 155.628 24.3933 155.532 24.324C155.436 24.2493 155.359 24.164 155.3 24.068L154.948 23.436ZM170.487 22.292L166.015 32.756C165.956 32.8947 165.879 32.9987 165.783 33.068C165.692 33.1427 165.551 33.18 165.359 33.18H163.887L165.423 29.884L162.103 22.292H163.839C163.993 22.292 164.113 22.3293 164.199 22.404C164.289 22.4787 164.356 22.564 164.399 22.66L166.143 26.916C166.201 27.06 166.249 27.204 166.287 27.348C166.329 27.492 166.369 27.6387 166.407 27.788C166.455 27.6387 166.503 27.492 166.551 27.348C166.599 27.1987 166.652 27.052 166.711 26.908L168.359 22.66C168.401 22.5533 168.471 22.4653 168.567 22.396C168.668 22.3267 168.78 22.292 168.903 22.292H170.487Z" fill="white"/>
</svg>
