<svg width="33" height="33" viewBox="0 0 33 33" fill="none" xmlns="http://www.w3.org/2000/svg">
<g filter="url(#filter0_d_14443_6003)">
<rect x="3" y="2" width="27" height="27" rx="13.5" fill="white"/>
</g>
<path d="M16.5043 23.6L15.3255 22.5634C11.1541 18.9 8.40011 16.4814 8.40011 13.5161C8.3944 12.9478 8.50572 12.3841 8.72755 11.8579C8.94938 11.3318 9.27727 10.8538 9.69204 10.4519C10.1068 10.0501 10.6001 9.73235 11.1431 9.51742C11.6861 9.30248 12.2679 9.19462 12.8545 9.20015C13.5484 9.20466 14.2333 9.3533 14.8629 9.63603C15.4925 9.91877 16.0522 10.329 16.5043 10.8392C16.9552 10.3299 17.5135 9.92013 18.1415 9.63742C18.7696 9.3547 19.4528 9.20561 20.1453 9.20015C20.7319 9.19462 21.3137 9.30248 21.8567 9.51742C22.3997 9.73235 22.893 10.0501 23.3078 10.4519C23.7225 10.8538 24.0504 11.3318 24.2723 11.8579C24.4941 12.3841 24.6054 12.9478 24.5997 13.5161C24.5997 16.4814 21.8457 18.9 17.6743 22.572L16.5043 23.6Z" fill="#AA61FF"/>
<defs>
<filter id="filter0_d_14443_6003" x="0" y="0" width="33" height="33" filterUnits="userSpaceOnUse" color-interpolation-filters="sRGB">
<feFlood flood-opacity="0" result="BackgroundImageFix"/>
<feColorMatrix in="SourceAlpha" type="matrix" values="0 0 0 0 0 0 0 0 0 0 0 0 0 0 0 0 0 0 127 0" result="hardAlpha"/>
<feOffset dy="1"/>
<feGaussianBlur stdDeviation="1.5"/>
<feComposite in2="hardAlpha" operator="out"/>
<feColorMatrix type="matrix" values="0 0 0 0 0 0 0 0 0 0 0 0 0 0 0 0 0 0 0.25 0"/>
<feBlend mode="normal" in2="BackgroundImageFix" result="effect1_dropShadow_14443_6003"/>
<feBlend mode="normal" in="SourceGraphic" in2="effect1_dropShadow_14443_6003" result="shape"/>
</filter>
</defs>
</svg>
