<svg width="44" height="43" viewBox="0 0 44 43" fill="none" xmlns="http://www.w3.org/2000/svg">
<path fill-rule="evenodd" clip-rule="evenodd" d="M22.0065 43C33.661 43 43.1089 33.5521 43.1089 21.8976C43.1089 10.243 33.661 0.795166 22.0065 0.795166C10.3519 0.795166 0.904053 10.243 0.904053 21.8976C0.904053 33.5521 10.3519 43 22.0065 43Z" fill="#353945"/>
<path fill-rule="evenodd" clip-rule="evenodd" d="M22.0075 25.5816C20.6235 25.5816 19.4974 24.4793 19.4974 23.1262C19.4974 21.7724 20.6235 20.67 22.0075 20.67C23.3916 20.67 24.5177 21.7724 24.5177 23.1262C24.5177 24.4793 23.3916 25.5816 22.0075 25.5816ZM22.0066 19.6551C20.0496 19.6551 18.4578 21.2122 18.4578 23.1265C18.4578 25.0401 20.0496 26.5971 22.0066 26.5971C23.9637 26.5971 25.5554 25.0401 25.5554 23.1265C25.5554 21.2122 23.9637 19.6551 22.0066 19.6551ZM30.143 26.8494C30.143 27.6072 29.5129 28.2228 28.7382 28.2228H15.2752C14.5006 28.2228 13.8704 27.6072 13.8704 26.8494V19.534C13.8704 18.7771 14.5006 18.1607 15.2752 18.1607H17.1899C17.8087 18.1607 18.3679 17.778 18.5808 17.2073L19.0828 15.8585C19.1452 15.6883 19.3131 15.574 19.4983 15.574H24.5151C24.7003 15.574 24.8683 15.6883 24.9314 15.8594L25.4326 17.2082C25.6455 17.778 26.2047 18.1607 26.8236 18.1607H28.7382C29.5129 18.1607 30.143 18.7771 30.143 19.534V26.8494ZM28.7377 17.1454H26.8231C26.6388 17.1454 26.4717 17.0302 26.4076 16.86L25.9074 15.5121C25.6962 14.9414 25.1361 14.5579 24.5147 14.5579H19.4979C18.8764 14.5579 18.3164 14.9414 18.106 15.5112L17.6049 16.8592C17.5408 17.0302 17.3738 17.1454 17.1894 17.1454H15.2748C13.9271 17.1454 12.8313 18.2173 12.8313 19.5339V26.8493C12.8313 28.1667 13.9271 29.2378 15.2748 29.2378H28.7377C30.0854 29.2378 31.1812 28.1667 31.1812 26.8493V19.5339C31.1812 18.2173 30.0854 17.1454 28.7377 17.1454Z" fill="white"/>
</svg>
