<svg width="308" height="48" viewBox="0 0 308 48" fill="none" xmlns="http://www.w3.org/2000/svg">
<rect width="308" height="48" rx="24" fill="#D4B0FF"/>
<g clip-path="url(#clip0_13523_22293)">
<path d="M110.667 32.3334C111.127 32.3334 111.5 31.9603 111.5 31.5001C111.5 31.0398 111.127 30.6667 110.667 30.6667C110.206 30.6667 109.833 31.0398 109.833 31.5001C109.833 31.9603 110.206 32.3334 110.667 32.3334Z" stroke="#21034F" stroke-width="1.5" stroke-linecap="round" stroke-linejoin="round"/>
<path d="M101.5 32.3334C101.96 32.3334 102.333 31.9603 102.333 31.5001C102.333 31.0398 101.96 30.6667 101.5 30.6667C101.04 30.6667 100.667 31.0398 100.667 31.5001C100.667 31.9603 101.04 32.3334 101.5 32.3334Z" stroke="#21034F" stroke-width="1.5" stroke-linecap="round" stroke-linejoin="round"/>
<path d="M94.8333 14.8333H98.1666L100.4 25.9916C100.476 26.3752 100.685 26.7199 100.99 26.9652C101.294 27.2104 101.676 27.3407 102.067 27.3333H110.167C110.558 27.3407 110.939 27.2104 111.244 26.9652C111.548 26.7199 111.757 26.3752 111.833 25.9916L113.167 18.9999H99" stroke="#21034F" stroke-width="1.5" stroke-linecap="round" stroke-linejoin="round"/>
</g>
<path d="M137.463 26.132L136.055 22.284C135.985 22.1133 135.913 21.9107 135.839 21.676C135.764 21.4413 135.689 21.188 135.615 20.916C135.545 21.188 135.473 21.444 135.399 21.684C135.324 21.9187 135.252 22.124 135.183 22.3L133.783 26.132H137.463ZM141.263 30.5H139.599C139.412 30.5 139.26 30.4547 139.143 30.364C139.025 30.268 138.937 30.1507 138.878 30.012L138.015 27.652H133.223L132.359 30.012C132.316 30.1347 132.233 30.2467 132.111 30.348C131.988 30.4493 131.836 30.5 131.655 30.5H129.974L134.527 18.932H136.719L141.263 30.5ZM147.128 24.388C146.904 24.116 146.659 23.924 146.392 23.812C146.131 23.7 145.848 23.644 145.544 23.644C145.245 23.644 144.976 23.7 144.736 23.812C144.496 23.924 144.291 24.0947 144.12 24.324C143.949 24.548 143.819 24.836 143.728 25.188C143.637 25.5347 143.592 25.9453 143.592 26.42C143.592 26.9 143.629 27.308 143.704 27.644C143.784 27.9747 143.896 28.2467 144.04 28.46C144.184 28.668 144.36 28.82 144.568 28.916C144.776 29.0067 145.008 29.052 145.264 29.052C145.675 29.052 146.024 28.9667 146.312 28.796C146.6 28.6253 146.872 28.3827 147.128 28.068V24.388ZM149.104 18.612V30.5H147.896C147.635 30.5 147.469 30.38 147.4 30.14L147.232 29.348C146.901 29.7267 146.52 30.0333 146.088 30.268C145.661 30.5027 145.163 30.62 144.592 30.62C144.144 30.62 143.733 30.5267 143.36 30.34C142.987 30.1533 142.664 29.884 142.392 29.532C142.125 29.1747 141.917 28.7347 141.768 28.212C141.624 27.6893 141.552 27.092 141.552 26.42C141.552 25.812 141.635 25.2467 141.8 24.724C141.965 24.2013 142.203 23.748 142.512 23.364C142.821 22.98 143.192 22.6813 143.624 22.468C144.056 22.2493 144.541 22.14 145.08 22.14C145.539 22.14 145.931 22.212 146.256 22.356C146.581 22.5 146.872 22.6947 147.128 22.94V18.612H149.104ZM156.206 24.388C155.982 24.116 155.737 23.924 155.47 23.812C155.209 23.7 154.926 23.644 154.622 23.644C154.323 23.644 154.054 23.7 153.814 23.812C153.574 23.924 153.369 24.0947 153.198 24.324C153.027 24.548 152.897 24.836 152.806 25.188C152.715 25.5347 152.67 25.9453 152.67 26.42C152.67 26.9 152.707 27.308 152.782 27.644C152.862 27.9747 152.974 28.2467 153.118 28.46C153.262 28.668 153.438 28.82 153.646 28.916C153.854 29.0067 154.086 29.052 154.342 29.052C154.753 29.052 155.102 28.9667 155.39 28.796C155.678 28.6253 155.95 28.3827 156.206 28.068V24.388ZM158.182 18.612V30.5H156.974C156.713 30.5 156.547 30.38 156.478 30.14L156.31 29.348C155.979 29.7267 155.598 30.0333 155.166 30.268C154.739 30.5027 154.241 30.62 153.67 30.62C153.222 30.62 152.811 30.5267 152.438 30.34C152.065 30.1533 151.742 29.884 151.47 29.532C151.203 29.1747 150.995 28.7347 150.846 28.212C150.702 27.6893 150.63 27.092 150.63 26.42C150.63 25.812 150.713 25.2467 150.878 24.724C151.043 24.2013 151.281 23.748 151.59 23.364C151.899 22.98 152.27 22.6813 152.702 22.468C153.134 22.2493 153.619 22.14 154.158 22.14C154.617 22.14 155.009 22.212 155.334 22.356C155.659 22.5 155.95 22.6947 156.206 22.94V18.612H158.182ZM171.931 20.7H168.443V30.5H166.291V20.7H162.803V18.932H171.931V20.7ZM174.842 22.164C175.45 22.164 176.002 22.2627 176.498 22.46C177 22.6573 177.426 22.9373 177.778 23.3C178.136 23.6627 178.41 24.1053 178.602 24.628C178.794 25.1507 178.89 25.7347 178.89 26.38C178.89 27.0307 178.794 27.6173 178.602 28.14C178.41 28.6627 178.136 29.108 177.778 29.476C177.426 29.844 177 30.1267 176.498 30.324C176.002 30.5213 175.45 30.62 174.842 30.62C174.229 30.62 173.672 30.5213 173.17 30.324C172.669 30.1267 172.24 29.844 171.882 29.476C171.53 29.108 171.256 28.6627 171.058 28.14C170.866 27.6173 170.77 27.0307 170.77 26.38C170.77 25.7347 170.866 25.1507 171.058 24.628C171.256 24.1053 171.53 23.6627 171.882 23.3C172.24 22.9373 172.669 22.6573 173.17 22.46C173.672 22.2627 174.229 22.164 174.842 22.164ZM174.842 29.1C175.525 29.1 176.029 28.8707 176.354 28.412C176.685 27.9533 176.85 27.2813 176.85 26.396C176.85 25.5107 176.685 24.836 176.354 24.372C176.029 23.908 175.525 23.676 174.842 23.676C174.149 23.676 173.634 23.9107 173.298 24.38C172.968 24.844 172.802 25.516 172.802 26.396C172.802 27.276 172.968 27.948 173.298 28.412C173.634 28.8707 174.149 29.1 174.842 29.1ZM192.545 27.772C192.662 27.772 192.766 27.8173 192.857 27.908L193.705 28.828C193.235 29.4093 192.657 29.8547 191.969 30.164C191.286 30.4733 190.465 30.628 189.505 30.628C188.646 30.628 187.873 30.4813 187.185 30.188C186.502 29.8947 185.918 29.4867 185.433 28.964C184.947 28.4413 184.574 27.8173 184.312 27.092C184.057 26.3667 183.929 25.5747 183.929 24.716C183.929 23.8467 184.067 23.052 184.345 22.332C184.622 21.6067 185.011 20.9827 185.513 20.46C186.019 19.9373 186.622 19.532 187.321 19.244C188.019 18.9507 188.793 18.804 189.641 18.804C190.483 18.804 191.23 18.9427 191.881 19.22C192.537 19.4973 193.094 19.86 193.553 20.308L192.833 21.308C192.79 21.372 192.734 21.428 192.665 21.476C192.601 21.524 192.51 21.548 192.393 21.548C192.313 21.548 192.23 21.5267 192.145 21.484C192.059 21.436 191.966 21.38 191.865 21.316C191.763 21.2467 191.646 21.172 191.513 21.092C191.379 21.012 191.225 20.94 191.049 20.876C190.873 20.8067 190.667 20.7507 190.433 20.708C190.203 20.66 189.937 20.636 189.633 20.636C189.115 20.636 188.641 20.7293 188.209 20.916C187.782 21.0973 187.414 21.364 187.105 21.716C186.795 22.0627 186.555 22.4893 186.385 22.996C186.214 23.4973 186.129 24.0707 186.129 24.716C186.129 25.3667 186.219 25.9453 186.401 26.452C186.587 26.9587 186.838 27.3853 187.153 27.732C187.467 28.0787 187.838 28.3453 188.265 28.532C188.691 28.7133 189.15 28.804 189.641 28.804C189.934 28.804 190.198 28.788 190.433 28.756C190.673 28.724 190.891 28.6733 191.089 28.604C191.291 28.5347 191.481 28.4467 191.657 28.34C191.838 28.228 192.017 28.092 192.193 27.932C192.246 27.884 192.302 27.8467 192.361 27.82C192.419 27.788 192.481 27.772 192.545 27.772ZM199.203 26.996C198.632 27.0227 198.152 27.0733 197.763 27.148C197.373 27.2173 197.061 27.308 196.827 27.42C196.592 27.532 196.424 27.6627 196.323 27.812C196.221 27.9613 196.171 28.124 196.171 28.3C196.171 28.6467 196.272 28.8947 196.475 29.044C196.683 29.1933 196.952 29.268 197.283 29.268C197.688 29.268 198.037 29.196 198.331 29.052C198.629 28.9027 198.92 28.6787 199.203 28.38V26.996ZM194.675 23.436C195.619 22.572 196.755 22.14 198.083 22.14C198.563 22.14 198.992 22.22 199.371 22.38C199.749 22.5347 200.069 22.7533 200.331 23.036C200.592 23.3133 200.789 23.6467 200.923 24.036C201.061 24.4253 201.131 24.852 201.131 25.316V30.5H200.235C200.048 30.5 199.904 30.4733 199.803 30.42C199.701 30.3613 199.621 30.2467 199.563 30.076L199.387 29.484C199.179 29.6707 198.976 29.836 198.779 29.98C198.581 30.1187 198.376 30.236 198.163 30.332C197.949 30.428 197.72 30.5 197.475 30.548C197.235 30.6013 196.968 30.628 196.675 30.628C196.328 30.628 196.008 30.5827 195.715 30.492C195.421 30.396 195.168 30.2547 194.955 30.068C194.741 29.8813 194.576 29.6493 194.459 29.372C194.341 29.0947 194.283 28.772 194.283 28.404C194.283 28.196 194.317 27.9907 194.387 27.788C194.456 27.58 194.568 27.3827 194.723 27.196C194.883 27.0093 195.088 26.8333 195.339 26.668C195.589 26.5027 195.896 26.3587 196.259 26.236C196.627 26.1133 197.053 26.0147 197.539 25.94C198.024 25.86 198.579 25.812 199.203 25.796V25.316C199.203 24.7667 199.085 24.3613 198.851 24.1C198.616 23.8333 198.277 23.7 197.835 23.7C197.515 23.7 197.248 23.7373 197.035 23.812C196.827 23.8867 196.643 23.972 196.483 24.068C196.323 24.1587 196.176 24.2413 196.043 24.316C195.915 24.3907 195.771 24.428 195.611 24.428C195.472 24.428 195.355 24.3933 195.259 24.324C195.163 24.2493 195.085 24.164 195.027 24.068L194.675 23.436ZM204.856 23.716C205.112 23.2253 205.416 22.8413 205.768 22.564C206.12 22.2813 206.536 22.14 207.016 22.14C207.394 22.14 207.698 22.2227 207.928 22.388L207.8 23.868C207.773 23.964 207.733 24.0333 207.68 24.076C207.632 24.1133 207.565 24.132 207.48 24.132C207.4 24.132 207.28 24.1187 207.12 24.092C206.965 24.0653 206.813 24.052 206.664 24.052C206.445 24.052 206.25 24.084 206.08 24.148C205.909 24.212 205.754 24.3053 205.616 24.428C205.482 24.5453 205.362 24.6893 205.256 24.86C205.154 25.0307 205.058 25.2253 204.968 25.444V30.5H202.992V22.292H204.152C204.354 22.292 204.496 22.3293 204.576 22.404C204.656 22.4733 204.709 22.6013 204.736 22.788L204.856 23.716ZM211.696 30.628C210.982 30.628 210.432 30.428 210.048 30.028C209.67 29.6227 209.48 29.0653 209.48 28.356V23.772H208.64C208.534 23.772 208.443 23.7373 208.368 23.668C208.294 23.5987 208.256 23.4947 208.256 23.356V22.572L209.576 22.356L209.992 20.116C210.019 20.0093 210.07 19.9267 210.144 19.868C210.219 19.8093 210.315 19.78 210.432 19.78H211.456V22.364H213.648V23.772H211.456V28.22C211.456 28.476 211.518 28.676 211.64 28.82C211.768 28.964 211.942 29.036 212.16 29.036C212.283 29.036 212.384 29.0227 212.464 28.996C212.55 28.964 212.622 28.932 212.68 28.9C212.744 28.868 212.8 28.8387 212.848 28.812C212.896 28.78 212.944 28.764 212.992 28.764C213.051 28.764 213.099 28.78 213.136 28.812C213.174 28.8387 213.214 28.8813 213.256 28.94L213.848 29.9C213.56 30.14 213.23 30.3213 212.856 30.444C212.483 30.5667 212.096 30.628 211.696 30.628Z" fill="#21034F"/>
<defs>
<clipPath id="clip0_13523_22293">
<rect width="20" height="20" fill="white" transform="translate(94 14)"/>
</clipPath>
</defs>
</svg>
