<svg width="315" height="60" viewBox="0 0 315 60" fill="none" xmlns="http://www.w3.org/2000/svg">
<rect width="315" height="60" rx="30" fill="#D4B0FF"/>
<g clip-path="url(#clip0_13489_19292)">
<path d="M80.6667 38.3334C81.1269 38.3334 81.5 37.9603 81.5 37.5001C81.5 37.0398 81.1269 36.6667 80.6667 36.6667C80.2064 36.6667 79.8333 37.0398 79.8333 37.5001C79.8333 37.9603 80.2064 38.3334 80.6667 38.3334Z" stroke="#21034F" stroke-width="1.5" stroke-linecap="round" stroke-linejoin="round"/>
<path d="M71.5 38.3334C71.9602 38.3334 72.3333 37.9603 72.3333 37.5001C72.3333 37.0398 71.9602 36.6667 71.5 36.6667C71.0398 36.6667 70.6667 37.0398 70.6667 37.5001C70.6667 37.9603 71.0398 38.3334 71.5 38.3334Z" stroke="#21034F" stroke-width="1.5" stroke-linecap="round" stroke-linejoin="round"/>
<path d="M64.8333 20.8333H68.1667L70.4 31.9916C70.4762 32.3752 70.6849 32.7199 70.9896 32.9652C71.2943 33.2104 71.6756 33.3407 72.0667 33.3333H80.1667C80.5577 33.3407 80.939 33.2104 81.2437 32.9652C81.5484 32.7199 81.7571 32.3752 81.8333 31.9916L83.1667 24.9999H69" stroke="#21034F" stroke-width="1.5" stroke-linecap="round" stroke-linejoin="round"/>
</g>
<path d="M105.157 30.748C105.552 30.748 105.896 30.7 106.189 30.604C106.483 30.5027 106.725 30.3613 106.917 30.18C107.115 29.9933 107.261 29.7693 107.357 29.508C107.453 29.2413 107.501 28.9453 107.501 28.62C107.501 28.3107 107.453 28.0307 107.357 27.78C107.261 27.5293 107.117 27.316 106.925 27.14C106.733 26.964 106.491 26.8307 106.197 26.74C105.904 26.644 105.557 26.596 105.157 26.596H103.549V30.748H105.157ZM105.157 24.932C105.931 24.932 106.6 25.0227 107.165 25.204C107.731 25.3853 108.197 25.6387 108.565 25.964C108.933 26.2893 109.205 26.6787 109.381 27.132C109.563 27.5853 109.653 28.0813 109.653 28.62C109.653 29.18 109.56 29.6947 109.373 30.164C109.187 30.628 108.907 31.028 108.533 31.364C108.16 31.7 107.691 31.9613 107.125 32.148C106.565 32.3347 105.909 32.428 105.157 32.428H103.549V36.5H101.397V24.932H105.157ZM112.731 29.716C112.987 29.2253 113.291 28.8413 113.643 28.564C113.995 28.2813 114.411 28.14 114.891 28.14C115.269 28.14 115.573 28.2227 115.803 28.388L115.675 29.868C115.648 29.964 115.608 30.0333 115.555 30.076C115.507 30.1133 115.44 30.132 115.355 30.132C115.275 30.132 115.155 30.1187 114.995 30.092C114.84 30.0653 114.688 30.052 114.539 30.052C114.32 30.052 114.125 30.084 113.955 30.148C113.784 30.212 113.629 30.3053 113.491 30.428C113.357 30.5453 113.237 30.6893 113.131 30.86C113.029 31.0307 112.933 31.2253 112.843 31.444V36.5H110.867V28.292H112.027C112.229 28.292 112.371 28.3293 112.451 28.404C112.531 28.4733 112.584 28.6013 112.611 28.788L112.731 29.716ZM120.233 28.164C120.841 28.164 121.393 28.2627 121.889 28.46C122.39 28.6573 122.817 28.9373 123.169 29.3C123.526 29.6627 123.801 30.1053 123.993 30.628C124.185 31.1507 124.281 31.7347 124.281 32.38C124.281 33.0307 124.185 33.6173 123.993 34.14C123.801 34.6627 123.526 35.108 123.169 35.476C122.817 35.844 122.39 36.1267 121.889 36.324C121.393 36.5213 120.841 36.62 120.233 36.62C119.62 36.62 119.062 36.5213 118.561 36.324C118.06 36.1267 117.63 35.844 117.273 35.476C116.921 35.108 116.646 34.6627 116.449 34.14C116.257 33.6173 116.161 33.0307 116.161 32.38C116.161 31.7347 116.257 31.1507 116.449 30.628C116.646 30.1053 116.921 29.6627 117.273 29.3C117.63 28.9373 118.06 28.6573 118.561 28.46C119.062 28.2627 119.62 28.164 120.233 28.164ZM120.233 35.1C120.916 35.1 121.42 34.8707 121.745 34.412C122.076 33.9533 122.241 33.2813 122.241 32.396C122.241 31.5107 122.076 30.836 121.745 30.372C121.42 29.908 120.916 29.676 120.233 29.676C119.54 29.676 119.025 29.9107 118.689 30.38C118.358 30.844 118.193 31.516 118.193 32.396C118.193 33.276 118.358 33.948 118.689 34.412C119.025 34.8707 119.54 35.1 120.233 35.1ZM131.669 30.028C131.61 30.1027 131.551 30.1613 131.493 30.204C131.439 30.2467 131.359 30.268 131.253 30.268C131.151 30.268 131.053 30.2387 130.957 30.18C130.861 30.116 130.746 30.0467 130.613 29.972C130.479 29.892 130.319 29.8227 130.133 29.764C129.951 29.7 129.725 29.668 129.453 29.668C129.106 29.668 128.802 29.732 128.541 29.86C128.279 29.9827 128.061 30.1613 127.885 30.396C127.714 30.6307 127.586 30.916 127.501 31.252C127.415 31.5827 127.373 31.9587 127.373 32.38C127.373 32.8173 127.418 33.2067 127.509 33.548C127.605 33.8893 127.741 34.1773 127.917 34.412C128.093 34.6413 128.306 34.8173 128.557 34.94C128.807 35.0573 129.09 35.116 129.405 35.116C129.719 35.116 129.973 35.0787 130.165 35.004C130.362 34.924 130.527 34.8387 130.661 34.748C130.794 34.652 130.909 34.5667 131.005 34.492C131.106 34.412 131.218 34.372 131.341 34.372C131.501 34.372 131.621 34.4333 131.701 34.556L132.269 35.276C132.05 35.532 131.813 35.748 131.557 35.924C131.301 36.0947 131.034 36.2333 130.757 36.34C130.485 36.4413 130.202 36.5133 129.909 36.556C129.621 36.5987 129.333 36.62 129.045 36.62C128.538 36.62 128.061 36.5267 127.613 36.34C127.165 36.148 126.773 35.8707 126.437 35.508C126.101 35.1453 125.834 34.7027 125.637 34.18C125.445 33.652 125.349 33.052 125.349 32.38C125.349 31.7773 125.434 31.22 125.605 30.708C125.781 30.1907 126.037 29.7453 126.373 29.372C126.709 28.9933 127.125 28.6973 127.621 28.484C128.117 28.2707 128.687 28.164 129.332 28.164C129.946 28.164 130.482 28.2627 130.941 28.46C131.405 28.6573 131.821 28.94 132.189 29.308L131.669 30.028ZM138.655 31.452C138.655 31.196 138.617 30.956 138.543 30.732C138.473 30.5027 138.367 30.3027 138.223 30.132C138.079 29.9613 137.895 29.828 137.671 29.732C137.452 29.6307 137.196 29.58 136.903 29.58C136.332 29.58 135.881 29.7427 135.551 30.068C135.225 30.3933 135.017 30.8547 134.927 31.452H138.655ZM134.887 32.644C134.919 33.0653 134.993 33.4307 135.111 33.74C135.228 34.044 135.383 34.2973 135.575 34.5C135.767 34.6973 135.993 34.8467 136.255 34.948C136.521 35.044 136.815 35.092 137.135 35.092C137.455 35.092 137.729 35.0547 137.959 34.98C138.193 34.9053 138.396 34.8227 138.567 34.732C138.743 34.6413 138.895 34.5587 139.023 34.484C139.156 34.4093 139.284 34.372 139.407 34.372C139.572 34.372 139.695 34.4333 139.775 34.556L140.343 35.276C140.124 35.532 139.879 35.748 139.607 35.924C139.335 36.0947 139.049 36.2333 138.751 36.34C138.457 36.4413 138.156 36.5133 137.847 36.556C137.543 36.5987 137.247 36.62 136.959 36.62C136.388 36.62 135.857 36.5267 135.367 36.34C134.876 36.148 134.449 35.868 134.087 35.5C133.724 35.1267 133.439 34.668 133.231 34.124C133.023 33.5747 132.919 32.94 132.919 32.22C132.919 31.66 133.009 31.1347 133.191 30.644C133.372 30.148 133.631 29.7187 133.967 29.356C134.308 28.988 134.721 28.6973 135.207 28.484C135.697 28.2707 136.249 28.164 136.863 28.164C137.38 28.164 137.857 28.2467 138.295 28.412C138.732 28.5773 139.108 28.82 139.423 29.14C139.737 29.4547 139.983 29.844 140.159 30.308C140.34 30.7667 140.431 31.292 140.431 31.884C140.431 32.1827 140.399 32.3853 140.335 32.492C140.271 32.5933 140.148 32.644 139.967 32.644H134.887ZM147.202 31.452C147.202 31.196 147.164 30.956 147.09 30.732C147.02 30.5027 146.914 30.3027 146.77 30.132C146.626 29.9613 146.442 29.828 146.218 29.732C145.999 29.6307 145.743 29.58 145.45 29.58C144.879 29.58 144.428 29.7427 144.098 30.068C143.772 30.3933 143.564 30.8547 143.474 31.452H147.202ZM143.434 32.644C143.466 33.0653 143.54 33.4307 143.658 33.74C143.775 34.044 143.93 34.2973 144.122 34.5C144.314 34.6973 144.54 34.8467 144.802 34.948C145.068 35.044 145.362 35.092 145.682 35.092C146.002 35.092 146.276 35.0547 146.506 34.98C146.74 34.9053 146.943 34.8227 147.114 34.732C147.29 34.6413 147.442 34.5587 147.57 34.484C147.703 34.4093 147.831 34.372 147.954 34.372C148.119 34.372 148.242 34.4333 148.322 34.556L148.89 35.276C148.671 35.532 148.426 35.748 148.154 35.924C147.882 36.0947 147.596 36.2333 147.298 36.34C147.004 36.4413 146.703 36.5133 146.394 36.556C146.09 36.5987 145.794 36.62 145.506 36.62C144.935 36.62 144.404 36.5267 143.914 36.34C143.423 36.148 142.996 35.868 142.634 35.5C142.271 35.1267 141.986 34.668 141.778 34.124C141.57 33.5747 141.465 32.94 141.465 32.22C141.465 31.66 141.556 31.1347 141.738 30.644C141.919 30.148 142.178 29.7187 142.514 29.356C142.855 28.988 143.268 28.6973 143.754 28.484C144.244 28.2707 144.796 28.164 145.41 28.164C145.927 28.164 146.404 28.2467 146.842 28.412C147.279 28.5773 147.655 28.82 147.97 29.14C148.284 29.4547 148.53 29.844 148.706 30.308C148.887 30.7667 148.977 31.292 148.977 31.884C148.977 32.1827 148.946 32.3853 148.882 32.492C148.818 32.5933 148.695 32.644 148.514 32.644H143.434ZM155.612 30.388C155.388 30.116 155.143 29.924 154.876 29.812C154.615 29.7 154.332 29.644 154.028 29.644C153.73 29.644 153.46 29.7 153.22 29.812C152.98 29.924 152.775 30.0947 152.604 30.324C152.434 30.548 152.303 30.836 152.212 31.188C152.122 31.5347 152.076 31.9453 152.076 32.42C152.076 32.9 152.114 33.308 152.188 33.644C152.268 33.9747 152.38 34.2467 152.524 34.46C152.668 34.668 152.844 34.82 153.052 34.916C153.26 35.0067 153.492 35.052 153.748 35.052C154.159 35.052 154.508 34.9667 154.796 34.796C155.084 34.6253 155.356 34.3827 155.612 34.068V30.388ZM157.588 24.612V36.5H156.38C156.119 36.5 155.954 36.38 155.884 36.14L155.716 35.348C155.386 35.7267 155.004 36.0333 154.572 36.268C154.146 36.5027 153.647 36.62 153.076 36.62C152.628 36.62 152.218 36.5267 151.844 36.34C151.471 36.1533 151.148 35.884 150.876 35.532C150.61 35.1747 150.402 34.7347 150.252 34.212C150.108 33.6893 150.036 33.092 150.036 32.42C150.036 31.812 150.119 31.2467 150.284 30.724C150.45 30.2013 150.687 29.748 150.996 29.364C151.306 28.98 151.676 28.6813 152.108 28.468C152.54 28.2493 153.026 28.14 153.564 28.14C154.023 28.14 154.415 28.212 154.74 28.356C155.066 28.5 155.356 28.6947 155.612 28.94V24.612H157.588ZM171.337 26.7H167.849V36.5H165.697V26.7H162.209V24.932H171.337V26.7ZM174.249 28.164C174.857 28.164 175.409 28.2627 175.905 28.46C176.406 28.6573 176.833 28.9373 177.185 29.3C177.542 29.6627 177.817 30.1053 178.009 30.628C178.201 31.1507 178.297 31.7347 178.297 32.38C178.297 33.0307 178.201 33.6173 178.009 34.14C177.817 34.6627 177.542 35.108 177.185 35.476C176.833 35.844 176.406 36.1267 175.905 36.324C175.409 36.5213 174.857 36.62 174.249 36.62C173.635 36.62 173.078 36.5213 172.577 36.324C172.075 36.1267 171.646 35.844 171.289 35.476C170.937 35.108 170.662 34.6627 170.465 34.14C170.273 33.6173 170.177 33.0307 170.177 32.38C170.177 31.7347 170.273 31.1507 170.465 30.628C170.662 30.1053 170.937 29.6627 171.289 29.3C171.646 28.9373 172.075 28.6573 172.577 28.46C173.078 28.2627 173.635 28.164 174.249 28.164ZM174.249 35.1C174.931 35.1 175.435 34.8707 175.761 34.412C176.091 33.9533 176.257 33.2813 176.257 32.396C176.257 31.5107 176.091 30.836 175.761 30.372C175.435 29.908 174.931 29.676 174.249 29.676C173.555 29.676 173.041 29.9107 172.705 30.38C172.374 30.844 172.209 31.516 172.209 32.396C172.209 33.276 172.374 33.948 172.705 34.412C173.041 34.8707 173.555 35.1 174.249 35.1ZM191.951 33.772C192.068 33.772 192.172 33.8173 192.263 33.908L193.111 34.828C192.641 35.4093 192.063 35.8547 191.375 36.164C190.692 36.4733 189.871 36.628 188.911 36.628C188.052 36.628 187.279 36.4813 186.591 36.188C185.908 35.8947 185.324 35.4867 184.839 34.964C184.353 34.4413 183.98 33.8173 183.719 33.092C183.463 32.3667 183.335 31.5747 183.335 30.716C183.335 29.8467 183.473 29.052 183.751 28.332C184.028 27.6067 184.417 26.9827 184.919 26.46C185.425 25.9373 186.028 25.532 186.727 25.244C187.425 24.9507 188.199 24.804 189.047 24.804C189.889 24.804 190.636 24.9427 191.287 25.22C191.943 25.4973 192.5 25.86 192.959 26.308L192.239 27.308C192.196 27.372 192.14 27.428 192.071 27.476C192.007 27.524 191.916 27.548 191.799 27.548C191.719 27.548 191.636 27.5267 191.551 27.484C191.465 27.436 191.372 27.38 191.271 27.316C191.169 27.2467 191.052 27.172 190.919 27.092C190.785 27.012 190.631 26.94 190.455 26.876C190.279 26.8067 190.073 26.7507 189.839 26.708C189.609 26.66 189.343 26.636 189.039 26.636C188.521 26.636 188.047 26.7293 187.615 26.916C187.188 27.0973 186.82 27.364 186.511 27.716C186.201 28.0627 185.961 28.4893 185.791 28.996C185.62 29.4973 185.535 30.0707 185.535 30.716C185.535 31.3667 185.625 31.9453 185.807 32.452C185.993 32.9587 186.244 33.3853 186.559 33.732C186.873 34.0787 187.244 34.3453 187.671 34.532C188.097 34.7133 188.556 34.804 189.047 34.804C189.34 34.804 189.604 34.788 189.839 34.756C190.079 34.724 190.297 34.6733 190.495 34.604C190.697 34.5347 190.887 34.4467 191.063 34.34C191.244 34.228 191.423 34.092 191.599 33.932C191.652 33.884 191.708 33.8467 191.767 33.82C191.825 33.788 191.887 33.772 191.951 33.772ZM196.249 29.172C196.569 28.8733 196.921 28.6307 197.305 28.444C197.689 28.2573 198.14 28.164 198.657 28.164C199.105 28.164 199.502 28.2413 199.849 28.396C200.196 28.5453 200.484 28.7587 200.713 29.036C200.948 29.308 201.124 29.636 201.241 30.02C201.364 30.3987 201.425 30.8173 201.425 31.276V36.5H199.449V31.276C199.449 30.7747 199.334 30.388 199.105 30.116C198.876 29.8387 198.526 29.7 198.057 29.7C197.716 29.7 197.396 29.7773 197.097 29.932C196.798 30.0867 196.516 30.2973 196.249 30.564V36.5H194.273V24.612H196.249V29.172ZM208.592 31.452C208.592 31.196 208.555 30.956 208.48 30.732C208.411 30.5027 208.304 30.3027 208.16 30.132C208.016 29.9613 207.832 29.828 207.608 29.732C207.389 29.6307 207.133 29.58 206.84 29.58C206.269 29.58 205.819 29.7427 205.488 30.068C205.163 30.3933 204.955 30.8547 204.864 31.452H208.592ZM204.824 32.644C204.856 33.0653 204.931 33.4307 205.048 33.74C205.165 34.044 205.32 34.2973 205.512 34.5C205.704 34.6973 205.931 34.8467 206.192 34.948C206.459 35.044 206.752 35.092 207.072 35.092C207.392 35.092 207.667 35.0547 207.896 34.98C208.131 34.9053 208.333 34.8227 208.504 34.732C208.68 34.6413 208.832 34.5587 208.96 34.484C209.093 34.4093 209.221 34.372 209.344 34.372C209.509 34.372 209.632 34.4333 209.712 34.556L210.28 35.276C210.061 35.532 209.816 35.748 209.544 35.924C209.272 36.0947 208.987 36.2333 208.688 36.34C208.395 36.4413 208.093 36.5133 207.784 36.556C207.48 36.5987 207.184 36.62 206.896 36.62C206.325 36.62 205.795 36.5267 205.304 36.34C204.813 36.148 204.387 35.868 204.024 35.5C203.661 35.1267 203.376 34.668 203.168 34.124C202.96 33.5747 202.856 32.94 202.856 32.22C202.856 31.66 202.947 31.1347 203.128 30.644C203.309 30.148 203.568 29.7187 203.904 29.356C204.245 28.988 204.659 28.6973 205.144 28.484C205.635 28.2707 206.187 28.164 206.8 28.164C207.317 28.164 207.795 28.2467 208.232 28.412C208.669 28.5773 209.045 28.82 209.36 29.14C209.675 29.4547 209.92 29.844 210.096 30.308C210.277 30.7667 210.368 31.292 210.368 31.884C210.368 32.1827 210.336 32.3853 210.272 32.492C210.208 32.5933 210.085 32.644 209.904 32.644H204.824ZM217.731 30.028C217.672 30.1027 217.614 30.1613 217.555 30.204C217.502 30.2467 217.422 30.268 217.315 30.268C217.214 30.268 217.115 30.2387 217.019 30.18C216.923 30.116 216.808 30.0467 216.675 29.972C216.542 29.892 216.382 29.8227 216.195 29.764C216.014 29.7 215.787 29.668 215.515 29.668C215.168 29.668 214.864 29.732 214.603 29.86C214.342 29.9827 214.123 30.1613 213.947 30.396C213.776 30.6307 213.648 30.916 213.563 31.252C213.478 31.5827 213.435 31.9587 213.435 32.38C213.435 32.8173 213.48 33.2067 213.571 33.548C213.667 33.8893 213.803 34.1773 213.979 34.412C214.155 34.6413 214.368 34.8173 214.619 34.94C214.87 35.0573 215.152 35.116 215.467 35.116C215.782 35.116 216.035 35.0787 216.227 35.004C216.424 34.924 216.59 34.8387 216.723 34.748C216.856 34.652 216.971 34.5667 217.067 34.492C217.168 34.412 217.28 34.372 217.403 34.372C217.563 34.372 217.683 34.4333 217.763 34.556L218.331 35.276C218.112 35.532 217.875 35.748 217.619 35.924C217.363 36.0947 217.096 36.2333 216.819 36.34C216.547 36.4413 216.264 36.5133 215.971 36.556C215.683 36.5987 215.395 36.62 215.107 36.62C214.6 36.62 214.123 36.5267 213.675 36.34C213.227 36.148 212.835 35.8707 212.499 35.508C212.163 35.1453 211.896 34.7027 211.699 34.18C211.507 33.652 211.411 33.052 211.411 32.38C211.411 31.7773 211.496 31.22 211.667 30.708C211.843 30.1907 212.099 29.7453 212.435 29.372C212.771 28.9933 213.187 28.6973 213.683 28.484C214.179 28.2707 214.75 28.164 215.395 28.164C216.008 28.164 216.544 28.2627 217.003 28.46C217.467 28.6573 217.883 28.94 218.251 29.308L217.731 30.028ZM221.546 24.612V31.42H221.914C222.047 31.42 222.151 31.404 222.226 31.372C222.306 31.3347 222.386 31.2627 222.466 31.156L224.506 28.636C224.591 28.524 224.684 28.4387 224.786 28.38C224.892 28.3213 225.028 28.292 225.194 28.292H227.002L224.45 31.34C224.268 31.58 224.071 31.764 223.858 31.892C223.97 31.972 224.068 32.0653 224.154 32.172C224.244 32.2787 224.33 32.3933 224.41 32.516L227.146 36.5H225.362C225.207 36.5 225.074 36.476 224.962 36.428C224.85 36.3747 224.756 36.2813 224.682 36.148L222.586 33.036C222.511 32.9133 222.434 32.8333 222.354 32.796C222.274 32.7587 222.154 32.74 221.994 32.74H221.546V36.5H219.57V24.612H221.546ZM231.327 28.164C231.935 28.164 232.487 28.2627 232.983 28.46C233.484 28.6573 233.911 28.9373 234.263 29.3C234.62 29.6627 234.895 30.1053 235.087 30.628C235.279 31.1507 235.375 31.7347 235.375 32.38C235.375 33.0307 235.279 33.6173 235.087 34.14C234.895 34.6627 234.62 35.108 234.263 35.476C233.911 35.844 233.484 36.1267 232.983 36.324C232.487 36.5213 231.935 36.62 231.327 36.62C230.713 36.62 230.156 36.5213 229.655 36.324C229.153 36.1267 228.724 35.844 228.367 35.476C228.015 35.108 227.74 34.6627 227.543 34.14C227.351 33.6173 227.255 33.0307 227.255 32.38C227.255 31.7347 227.351 31.1507 227.543 30.628C227.74 30.1053 228.015 29.6627 228.367 29.3C228.724 28.9373 229.153 28.6573 229.655 28.46C230.156 28.2627 230.713 28.164 231.327 28.164ZM231.327 35.1C232.009 35.1 232.513 34.8707 232.839 34.412C233.169 33.9533 233.335 33.2813 233.335 32.396C233.335 31.5107 233.169 30.836 232.839 30.372C232.513 29.908 232.009 29.676 231.327 29.676C230.633 29.676 230.119 29.9107 229.783 30.38C229.452 30.844 229.287 31.516 229.287 32.396C229.287 33.276 229.452 33.948 229.783 34.412C230.119 34.8707 230.633 35.1 231.327 35.1ZM243.954 28.292V36.5H242.746C242.485 36.5 242.32 36.38 242.25 36.14L242.114 35.484C241.778 35.8253 241.408 36.1027 241.002 36.316C240.597 36.524 240.12 36.628 239.57 36.628C239.122 36.628 238.725 36.5533 238.378 36.404C238.037 36.2493 237.749 36.0333 237.514 35.756C237.28 35.4787 237.101 35.1507 236.978 34.772C236.861 34.388 236.802 33.9667 236.802 33.508V28.292H238.778V33.508C238.778 34.0093 238.893 34.3987 239.122 34.676C239.357 34.948 239.706 35.084 240.17 35.084C240.512 35.084 240.832 35.0093 241.13 34.86C241.429 34.7053 241.712 34.4947 241.978 34.228V28.292H243.954ZM248.65 36.628C247.935 36.628 247.386 36.428 247.002 36.028C246.623 35.6227 246.434 35.0653 246.434 34.356V29.772H245.594C245.487 29.772 245.396 29.7373 245.322 29.668C245.247 29.5987 245.21 29.4947 245.21 29.356V28.572L246.53 28.356L246.946 26.116C246.972 26.0093 247.023 25.9267 247.098 25.868C247.172 25.8093 247.268 25.78 247.386 25.78H248.41V28.364H250.602V29.772H248.41V34.22C248.41 34.476 248.471 34.676 248.594 34.82C248.722 34.964 248.895 35.036 249.114 35.036C249.236 35.036 249.338 35.0227 249.418 34.996C249.503 34.964 249.575 34.932 249.634 34.9C249.698 34.868 249.754 34.8387 249.802 34.812C249.85 34.78 249.898 34.764 249.946 34.764C250.004 34.764 250.052 34.78 250.09 34.812C250.127 34.8387 250.167 34.8813 250.21 34.94L250.802 35.9C250.514 36.14 250.183 36.3213 249.81 36.444C249.436 36.5667 249.05 36.628 248.65 36.628Z" fill="#21034F"/>
<defs>
<clipPath id="clip0_13489_19292">
<rect width="20" height="20" fill="white" transform="translate(64 20)"/>
</clipPath>
</defs>
</svg>
