<svg width="36" height="36" viewBox="0 0 36 36" fill="none" xmlns="http://www.w3.org/2000/svg">
<path fill-rule="evenodd" clip-rule="evenodd" d="M13.5604 15.1007C13.6039 15.9164 12.9778 16.613 12.1621 16.6565C11.0487 16.7158 10.1669 16.7884 9.47783 16.8611C8.55244 16.9587 7.99015 17.5271 7.89668 18.3448C7.76248 19.5187 7.64583 21.2952 7.64583 23.9167C7.64583 26.5381 7.76248 28.3147 7.89668 29.4886C7.99031 30.3077 8.55118 30.8745 9.47519 30.972C11.0934 31.1428 13.7685 31.3125 18 31.3125C22.2315 31.3125 24.9066 31.1428 26.5248 30.972C27.4488 30.8745 28.0097 30.3077 28.1033 29.4886C28.2375 28.3147 28.3542 26.5381 28.3542 23.9167C28.3542 21.2952 28.2375 19.5187 28.1033 18.3448C28.0098 17.5271 27.4476 16.9587 26.5222 16.8611C25.8331 16.7884 24.9513 16.7158 23.8379 16.6565C23.0222 16.613 22.3961 15.9164 22.4396 15.1007C22.4831 14.2849 23.1796 13.6588 23.9954 13.7023C25.1534 13.7641 26.0865 13.8404 26.8324 13.9191C29.0281 14.1506 30.7795 15.7083 31.0425 18.0088C31.1924 19.3199 31.3125 21.2121 31.3125 23.9167C31.3125 26.6213 31.1924 28.5135 31.0425 29.8246C30.7797 32.1237 29.0324 33.6821 26.8353 33.914C25.0881 34.0984 22.3055 34.2709 18 34.2709C13.6945 34.2709 10.9119 34.0984 9.16469 33.914C6.96765 33.6821 5.22031 32.1237 4.95749 29.8246C4.80761 28.5135 4.6875 26.6213 4.6875 23.9167C4.6875 21.2121 4.80761 19.3199 4.95749 18.0088C5.22047 15.7083 6.97187 14.1506 9.16755 13.9191C9.91349 13.8404 10.8466 13.7641 12.0046 13.7023C12.8204 13.6588 13.5169 14.2849 13.5604 15.1007Z" fill="#B1B5C3"/>
<path fill-rule="evenodd" clip-rule="evenodd" d="M13.8688 9.43143C13.2912 10.0091 12.3546 10.0091 11.777 9.43143C11.1993 8.85378 11.1993 7.91722 11.777 7.33957L16.9541 2.16249C17.5317 1.58484 18.4683 1.58484 19.0459 2.16249L24.223 7.33957C24.8007 7.91722 24.8007 8.85378 24.223 9.43143C23.6454 10.0091 22.7088 10.0091 22.1312 9.43143L19.4792 6.77944V20.9584C19.4792 21.7753 18.8169 22.4376 18 22.4376C17.1831 22.4376 16.5208 21.7753 16.5208 20.9584V6.77944L13.8688 9.43143Z" fill="#777E91"/>
</svg>
